<svg id="Layer_1" data-name="Layer 1" xmlns="http://www.w3.org/2000/svg" viewBox="0 0 500 500"><defs><style>.cls-1{fill:#80be79;}.cls-2{fill:#fff;}.cls-3{opacity:0.3;}.cls-4{fill:#000072;}.cls-5{fill:#6fa367;}.cls-6{opacity:0.7;}.cls-7{fill:#050505;}.cls-8{fill:#ffdab6;}.cls-9{opacity:0.3;}.cls-10{fill:#98c191;}.cls-11{fill:#bcf9b4;}.cls-12{fill:#ffe448;}</style></defs><path class="cls-1" d="M452.94,295.54c-7.91,30.59-29.46,55.79-58,69.34C346,388.11,251.89,419.65,188.39,358.5a102.75,102.75,0,0,1-27.71-45.81A96.55,96.55,0,0,1,157,283.78c.6-22.21,8.83-47.52,37.9-63.75,26.86-15,59.63-13.81,86.24,1.63,10.59,6.14,24.43,11.64,40.49,12.13,37.81,1.18,61.85-37.39,113.11,0A52.16,52.16,0,0,1,447.64,247C457.43,261.68,457.16,279.24,452.94,295.54Z"/><path class="cls-2" d="M405.36,242.06l2.41,2.67a3.67,3.67,0,0,0,4.22.89l3.29-1.48a3.67,3.67,0,0,1,4.68,5.18l-1.79,3.12a3.65,3.65,0,0,0,.46,4.29L421,259.4a3.67,3.67,0,0,1-3.48,6.06l-3.52-.74a3.67,3.67,0,0,0-3.94,1.76l-1.79,3.12a3.67,3.67,0,0,1-6.83-1.44l-.38-3.58a3.68,3.68,0,0,0-2.9-3.2l-3.52-.74a3.67,3.67,0,0,1-.75-6.94l3.29-1.47a3.67,3.67,0,0,0,2.15-3.74l-.39-3.58A3.68,3.68,0,0,1,405.36,242.06Z"/><path class="cls-2" d="M256.1,322.63l-.11,3.6a3.67,3.67,0,0,0,2.43,3.57l3.39,1.21a3.67,3.67,0,0,1-.21,7l-3.46,1a3.67,3.67,0,0,0-2.64,3.41l-.11,3.6a3.67,3.67,0,0,1-6.7,2l-2-3a3.66,3.66,0,0,0-4.06-1.45l-3.45,1a3.67,3.67,0,0,1-3.94-5.76l2.21-2.85a3.68,3.68,0,0,0,.13-4.31l-2-3a3.67,3.67,0,0,1,4.27-5.52l3.39,1.22a3.69,3.69,0,0,0,4.14-1.21l2.21-2.85A3.67,3.67,0,0,1,256.1,322.63Z"/><path class="cls-2" d="M303.06,245.32l.89,1.83a2.06,2.06,0,0,0,2.15,1.15l2-.27a2.07,2.07,0,0,1,1.72,3.55l-1.47,1.4a2.08,2.08,0,0,0-.43,2.4l.89,1.83a2.08,2.08,0,0,1-2.85,2.73l-1.79-1a2.09,2.09,0,0,0-2.42.33l-1.46,1.41a2.07,2.07,0,0,1-3.48-1.86l.36-2a2.08,2.08,0,0,0-1.06-2.2l-1.79-1a2.07,2.07,0,0,1,.69-3.88l2-.27a2.09,2.09,0,0,0,1.76-1.69l.36-2A2.07,2.07,0,0,1,303.06,245.32Z"/><path class="cls-2" d="M376.4,302.7l.4,2a2.07,2.07,0,0,0,1.8,1.65l2,.23a2.08,2.08,0,0,1,.78,3.87l-1.77,1a2.08,2.08,0,0,0-1,2.21l.41,2a2.07,2.07,0,0,1-3.44,1.93l-1.49-1.37a2.09,2.09,0,0,0-2.43-.28l-1.77,1a2.07,2.07,0,0,1-2.9-2.67l.84-1.85a2.07,2.07,0,0,0-.48-2.39l-1.5-1.37a2.08,2.08,0,0,1,1.64-3.59l2,.23a2.08,2.08,0,0,0,2.13-1.19l.84-1.85A2.07,2.07,0,0,1,376.4,302.7Z"/><g class="cls-3"><path class="cls-4" d="M282.1,212.19s17.62,19.4-10.81,64.74a5.41,5.41,0,0,0-.32,5.2,63.23,63.23,0,0,1,3.93,10.56,55.71,55.71,0,0,0-25.57-4.41S287.08,246.6,282.1,212.19Z"/></g><path class="cls-5" d="M452.94,295.54c-7.91,30.59-29.46,55.79-58,69.34C346,388.11,251.89,419.65,188.39,358.5a102.75,102.75,0,0,1-27.71-45.81l54,6.15s12.94,13.07,19.8,24.65a6.08,6.08,0,0,0,8.65,1.92c11.09-7.55,37.49-22.19,68.79-16.6,0,0,14.09-24.44,3.28-44.68,0,0,5,4.65,9.52,14.26a5,5,0,0,0,9.41-.7c2.57-8.66,7-18.49,14.57-25.4,0,0-.4,4.1-.43,10.41-.1,19.91,22.81,31.26,38.54,19.05A78.21,78.21,0,0,1,418.11,287a38.06,38.06,0,0,0,29.57-39.45c0-.2,0-.39,0-.58C457.43,261.68,457.16,279.24,452.94,295.54Z"/><g class="cls-6"><path class="cls-2" d="M194.91,229.92c26.86-15,59.63-13.81,86.24,1.63,10.59,6.14,24.43,11.63,40.49,12.13,37.81,1.17,61.85-37.4,113.11,0a52.13,52.13,0,0,1,12.89,13.21,48.5,48.5,0,0,1,7.89,23.46c.85-11.58-1.09-23.16-7.89-33.34a52.16,52.16,0,0,0-12.89-13.22c-51.26-37.39-75.3,1.18-113.11,0-16.06-.49-29.9-6-40.49-12.13C254.54,206.22,221.77,205,194.91,220c-29.07,16.23-37.3,41.54-37.9,63.75q-.09,3.75.1,7.46C158.23,269.63,166.89,245.56,194.91,229.92Z"/></g><path d="M355,230.74c-1.16.53-2.53,1.18-3.78,1.83-.64.32-1.28.66-1.91,1s-1.27.69-1.89,1a79.1,79.1,0,0,0-7.27,4.7,49.91,49.91,0,0,0-6.45,5.7,86.67,86.67,0,0,0-5.56,6.86v0a.34.34,0,0,1-.47.07.37.37,0,0,1-.14-.28,19.5,19.5,0,0,1,2.94-9.09,46.94,46.94,0,0,1,5.92-7.54,60.14,60.14,0,0,1,7.15-6.3c1.26-1,2.56-1.87,3.9-2.72a46.7,46.7,0,0,1,4.21-2.48,4,4,0,0,1,3.6,7l-.16.08Z"/><path class="cls-7" d="M368.25,377.73c-.87-1-1.59-1.89-2.34-2.84s-1.47-1.89-2.16-2.85c-1.41-1.92-2.74-3.88-4-5.86a134,134,0,0,1-7.16-12.27,120,120,0,0,1-10.09-26.57A89.73,89.73,0,0,1,339.93,299a63.49,63.49,0,0,1,2.47-14c.37-1.13.74-2.26,1.14-3.37s.92-2.19,1.43-3.26l.74-1.61.89-1.53c.6-1,1.23-2,1.88-3a.3.3,0,0,1,.42-.08.31.31,0,0,1,.13.29v0c-.19,1.17-.41,2.31-.66,3.44l-.38,1.67-.31,1.69c-.19,1.13-.45,2.23-.66,3.34s-.34,2.24-.52,3.34a90.82,90.82,0,0,0-1.26,13.34,78.22,78.22,0,0,0,.91,13.32,93,93,0,0,0,2.87,13,126.33,126.33,0,0,0,4.51,12.62c1.76,4.11,3.72,8.15,5.86,12.09s4.45,7.79,6.93,11.53c1.26,1.85,2.52,3.71,3.86,5.5l2,2.67c.66.86,1.39,1.78,2,2.52l.05.06a4,4,0,0,1-6,5.15Z"/><path class="cls-7" d="M316.11,284a26.51,26.51,0,0,1,4.42,9.57A42.3,42.3,0,0,1,321.76,304a62.12,62.12,0,0,1-.9,10.61c-.16.88-.38,1.75-.57,2.62l-.29,1.31-.39,1.29-.78,2.58-1,2.51a51.6,51.6,0,0,1-2.27,4.89c-.38.82-.9,1.56-1.34,2.34s-.91,1.56-1.42,2.3l-1.59,2.18a24.51,24.51,0,0,1-1.65,2.12l-1.77,2-.89,1-1,.93a65,65,0,0,1-8.12,6.92c-1.47,1-2.91,2-4.4,3l-4.58,2.63c-12.47,6.49-25.92,10.39-39.44,12.67l-5.08.81-2.54.4-2.55.3-5.09.58c-1.7.21-3.4.39-5.12.51a132.21,132.21,0,0,1-20.79.2,71.78,71.78,0,0,1-10.56-1.62,40.15,40.15,0,0,1-10.41-4,22.16,22.16,0,0,1-8.63-8.31,19.11,19.11,0,0,1-2.18-5.84,19.71,19.71,0,0,1-.37-3,22.93,22.93,0,0,1,0-3,33,33,0,0,1,2.9-11,55.78,55.78,0,0,1,5.37-9.39,85.63,85.63,0,0,1,14.29-15.43A101,101,0,0,1,234.85,289a69.54,69.54,0,0,1,20.76-3.18,41.61,41.61,0,0,1,10.53,1.36,21.17,21.17,0,0,1,9.21,5.26.43.43,0,0,1,0,.62.37.37,0,0,1-.34.12h0c-3.53-.34-6.69-.83-9.86-1.21a61.65,61.65,0,0,0-9.51-.69,63.47,63.47,0,0,0-18.91,3.53A91.47,91.47,0,0,0,219.09,303a102.29,102.29,0,0,0-15.74,11.51,81.08,81.08,0,0,0-12.86,14.34A47.58,47.58,0,0,0,185.9,337a25.25,25.25,0,0,0-2.23,8.47,16.53,16.53,0,0,0,.24,4,11.79,11.79,0,0,0,1.36,3.56,14.7,14.7,0,0,0,5.81,5.43,32.59,32.59,0,0,0,8.41,3.15,63.66,63.66,0,0,0,9.38,1.42,125.19,125.19,0,0,0,19.54-.24c1.64-.1,3.29-.29,4.93-.49l4.94-.57,2.46-.29,2.45-.4,4.89-.78c13-2.24,25.72-5.9,37.18-11.79a68.1,68.1,0,0,0,15.55-11,47.72,47.72,0,0,0,10.86-15.22l.93-2.16.77-2.23.38-1.11.31-1.14c.2-.77.43-1.52.61-2.29a57.25,57.25,0,0,0,1.23-9.44c.12-3.2-.09-6.4-.19-9.65s-.32-6.53-.4-10v0a.44.44,0,0,1,.44-.45A.43.43,0,0,1,316.11,284Z"/><path d="M281.46,398c-33.58,0-67.56-9.45-95.81-36.66-21.47-20.67-33.34-49-32.58-77.67.78-29.76,14.58-53,39.92-67.1h0c27.43-15.32,62-14.68,90.14,1.66,12.57,7.29,25.57,11.2,38.63,11.6,12.18.37,22.85-3.64,34.15-7.88,22.49-8.46,45.75-17.2,81.17,8.64,20.22,14.75,27,37.55,19.69,65.94-8.12,31.41-30,57.62-60.13,71.91C367.88,382.1,325,398,281.46,398ZM196.84,223.48c-23.08,12.89-35.15,33.21-35.87,60.41-.7,26.48,10.3,52.64,30.16,71.77,26.5,25.51,58.59,34.42,90.45,34.42,42.07,0,83.74-15.51,111.67-28.78s48.33-37.6,55.86-66.74c6.56-25.34.94-44.71-16.69-57.57-32-23.33-52.25-15.7-73.73-7.63-11.52,4.33-23.43,8.83-37.17,8.38-14.39-.44-28.64-4.7-42.36-12.66-25.76-15-57.31-15.56-82.32-1.6Z"/><path class="cls-8" d="M231.47,143.24s14.33-14.54,31.11,1.08,14,37.25,7.69,45.08S231.47,143.24,231.47,143.24Z"/><path d="M268.66,194.13h-.45c-3.75-.25-9.64-3.47-24.9-25.38-8.09-11.63-15.15-23.34-15.22-23.46a4,4,0,0,1,.57-4.81c5.88-6,21.11-13.47,36.61.95,17.9,16.66,16.14,40.41,8.09,50.46A5.92,5.92,0,0,1,268.66,194.13Zm-32-50c11.57,18.85,25.86,38.59,31.3,41.73,4.11-6.65,7-24.62-8.06-38.64C249.59,137.64,240.76,141.33,236.64,144.12Z"/><path class="cls-8" d="M87.89,285.78s-14.64,14.22.85,31.11,37.15,14.25,45,8S87.89,285.78,87.89,285.78Z"/><path d="M117.18,333.71a42.33,42.33,0,0,1-31.35-14.14C71.52,304,79.12,288.79,85.14,283a4,4,0,0,1,4.82-.54c.11.07,11.77,7.22,23.34,15.4,21.81,15.41,25,21.32,25.2,25.08a5.93,5.93,0,0,1-2.28,5.13C131.86,331.46,125,333.71,117.18,333.71ZM88.74,291c-2.83,4.1-6.59,12.91,2.92,23.27,13.9,15.16,31.89,12.4,38.58,8.34C127.13,317.09,107.5,302.67,88.74,291Z"/><path class="cls-8" d="M241.26,296.69s-80,84.37-129.5,16.53c0,0-43.59-30.77-50.9-76.34-4.06-25.27,3-55.08,34.93-86.73,89.36-88.72,162.94,17.16,162.94,17.16,13.07,9.66,20.42,20.45,23.77,31.54C296.5,245,241.26,296.69,241.26,296.69Z"/><g class="cls-9"><path class="cls-10" d="M241.26,296.69s-80,84.37-129.5,16.53c0,0-43.59-30.77-50.9-76.34,1.11,1.62,61.6,89.34,170,34.12,35.35-18,49.14-44.51,51.6-72.15C296.5,245,241.26,296.69,241.26,296.69Z"/></g><g class="cls-6"><path class="cls-2" d="M282.5,198.85c-3.35-11.09-10.7-21.88-23.77-31.54,0,0-73.58-105.88-162.94-17.16-20.45,20.3-30.7,39.84-34.35,57.92,5.13-14.95,15-30.76,31.38-47,22.73-22.56,44.43-32.54,64.17-34.87a4.66,4.66,0,0,1,3.93,1.35c3.61,3.81,11.83,7.78,21.84,10.16,10.51,2.5,20.06,2.54,24.8.47a4.54,4.54,0,0,1,4,.26c24.08,13.71,40,34.14,43.47,38.81a8.34,8.34,0,0,0,1.75,1.76c12.42,9.47,19.47,20,22.73,30.76a58.52,58.52,0,0,1,.95,28.6C284.86,225.6,286.49,212,282.5,198.85Z"/></g><path d="M217.83,179.59a23.84,23.84,0,0,1-.77,12.71,28.94,28.94,0,0,1-6.73,11.21c-.76.8-1.59,1.53-2.42,2.26s-1.73,1.36-2.67,1.95-1.88,1.13-2.83,1.65a30.35,30.35,0,0,1-3,1.3,28.38,28.38,0,0,1-12.56,1.79.29.29,0,0,1-.25-.32.33.33,0,0,1,.14-.22c3.69-2,7.16-3.84,10.35-5.92a13.37,13.37,0,0,0,1.18-.78l1.16-.79c.73-.6,1.51-1.09,2.21-1.7a42.06,42.06,0,0,0,4.07-3.69,46.2,46.2,0,0,0,6.73-8.79,69.32,69.32,0,0,0,5.14-10.66h0a.12.12,0,0,1,.23,0Z"/><path d="M124.34,272.17A71.06,71.06,0,0,0,135,267.1a45.75,45.75,0,0,0,8.83-6.66,40.86,40.86,0,0,0,3.72-4.05c.62-.69,1.12-1.47,1.72-2.2l.8-1.15a13.47,13.47,0,0,0,.79-1.18c2.11-3.17,3.95-6.62,6-10.3a.29.29,0,0,1,.38-.11.3.3,0,0,1,.15.23,28.22,28.22,0,0,1-1.88,12.54,31.43,31.43,0,0,1-1.32,3c-.53.95-1,1.92-1.67,2.82s-1.29,1.78-2,2.65-1.47,1.66-2.28,2.41a28.75,28.75,0,0,1-11.26,6.64,23.93,23.93,0,0,1-12.71.69.13.13,0,0,1,0-.24Z"/><path d="M195.59,233.93a60.53,60.53,0,0,0-5.77,2.42,17.62,17.62,0,0,0-4.44,3,15.48,15.48,0,0,0-2.95,4.21c-.81,1.67-1.46,3.59-2.3,5.76a.21.21,0,0,1-.27.12.2.2,0,0,1-.11-.09,11.24,11.24,0,0,1,2.37-13.49,12.62,12.62,0,0,1,6.65-3.07,12.37,12.37,0,0,1,6.84.88.12.12,0,0,1,.06.16.11.11,0,0,1-.07.06Z"/><path d="M159.27,343.57c-1.34,0-2.68-.05-4-.13-18.17-1.18-33.75-10.39-46.31-27.38C103.32,312,60.18,279,56.16,231c-2.42-28.87,10-57,36.84-83.7s55.1-38.87,84-36.23c47.9,4.36,80.56,47.74,84.63,53.4,16.9,12.68,26,28.33,27,46.5,2.49,43.39-41.68,85.75-44.59,88.49C241.39,302.29,201.22,343.56,159.27,343.57Zm10.08-224.9c-24.07,0-47.85,11.51-70.78,34.28-25.13,24.94-36.74,51-34.53,77.43,3.9,46.56,49.54,79.28,50,79.61a3.7,3.7,0,0,1,.91.9c11.18,15.32,24.9,23.62,40.79,24.65C195.9,338.15,238,294.41,238.4,294l.17-.17c.44-.41,44.49-42.15,42.17-82.35-.92-15.9-9.11-29.68-24.36-41a3.89,3.89,0,0,1-.89-.92c-.32-.46-32.82-46.37-79.29-50.58C173.92,118.78,171.63,118.67,169.35,118.67Z"/><circle class="cls-1" cx="215.76" cy="271" r="30.16"/><path class="cls-5" d="M242.9,257.85a30.15,30.15,0,0,1-57.25,11.46,30.16,30.16,0,1,0,57.25-11.46Z"/><g class="cls-6"><path class="cls-11" d="M195.5,257.5a30.15,30.15,0,0,1,50.41,13.75,30.16,30.16,0,1,0-59.32,7.41A30.11,30.11,0,0,1,195.5,257.5Z"/></g><path d="M215.76,304A33,33,0,1,1,239,294.4,32.86,32.86,0,0,1,215.76,304Zm0-60.29a27.33,27.33,0,1,0,19.4,8.07A27.23,27.23,0,0,0,215.76,243.67Z"/><path d="M230.9,311.88a25.54,25.54,0,0,1-18.19-7.57h0a25.63,25.63,0,0,1,18.19-43.7H231a25.64,25.64,0,0,1-.09,51.27Zm0-46.75a21.12,21.12,0,0,0-15,36h0a21.12,21.12,0,1,0,15.07-36Z"/><circle class="cls-12" cx="215.76" cy="271" r="13.13"/><g class="cls-3"><path class="cls-4" d="M225.9,262.67a13.12,13.12,0,0,1-22.42,9.67c-.3-.3-.57-.61-.83-.92a13.12,13.12,0,1,0,23.25-8.75Z"/></g><path d="M215.76,287h-.06a15.84,15.84,0,0,1-11.26-4.72h0A15.93,15.93,0,1,1,215.76,287Zm-7.31-8.69a10.24,10.24,0,0,0,7.27,3h0a10.31,10.31,0,0,0,0-20.61h0a10.3,10.3,0,0,0-7.31,17.57Z"/><path d="M105.08,163.57a156.63,156.63,0,0,1-13.54-8.36,101.67,101.67,0,0,1-12.64-10,41.57,41.57,0,0,1-5.6-6.44,19.75,19.75,0,0,1-2.2-4.25,10.63,10.63,0,0,1-.56-5.67,9.46,9.46,0,0,1,3-5.21,14.56,14.56,0,0,1,4.35-2.72,12.15,12.15,0,0,1,5.26-.86,12.56,12.56,0,0,1,5,1.45,17.1,17.1,0,0,1,6.68,6.63A18.1,18.1,0,0,1,97.4,137a12,12,0,0,1-.93,5,9.76,9.76,0,0,1-3.35,4.17A11.6,11.6,0,0,1,88.48,148a18.76,18.76,0,0,1-4.52.21,34.7,34.7,0,0,1-8.16-1.74,67.78,67.78,0,0,1-7.45-3,60.72,60.72,0,0,1-7-3.76,24.86,24.86,0,0,1-6-5.34.08.08,0,0,1,0-.11.1.1,0,0,1,.07,0A36.31,36.31,0,0,1,63,136.52c2.37,1,4.63,2.14,7,3.06a62.55,62.55,0,0,0,7.1,2.42,30.05,30.05,0,0,0,7.06,1.12,9.32,9.32,0,0,0,5.69-1.44,5.07,5.07,0,0,0,1.69-4.53c-.24-3.9-3.08-8.29-6.39-9.84a5.41,5.41,0,0,0-4.74-.11,7.86,7.86,0,0,0-2.15,1.44,2.51,2.51,0,0,0-.79,1.45,4,4,0,0,0,.34,1.94,12.46,12.46,0,0,0,1.46,2.58A34.62,34.62,0,0,0,84,139.75c7.23,6.55,16.09,12,24.76,17l.1.05a3.88,3.88,0,0,1-3.8,6.77Z"/></svg>