<svg id="Layer_1" data-name="Layer 1" xmlns="http://www.w3.org/2000/svg" viewBox="0 0 500 500"><defs><style>.cls-1,.cls-5{fill:#fff;}.cls-2{fill:#ff3f12;}.cls-2,.cls-3,.cls-4,.cls-5,.cls-6{fill-rule:evenodd;}.cls-4{fill:#80be79;}.cls-6{fill:#ff1515;stroke:#000;stroke-miterlimit:10;}</style></defs><path class="cls-1" d="M395.93,230.88A140.42,140.42,0,1,1,255.51,90.46,140.42,140.42,0,0,1,395.93,230.88Z"/><path class="cls-2" d="M253.76,72.27A157.76,157.76,0,1,0,411.51,230,157.77,157.77,0,0,0,253.76,72.27ZM121.87,230c0-72.73,59.16-131.9,131.89-131.9a131.31,131.31,0,0,1,83.87,30.17L152,313.91A131.33,131.33,0,0,1,121.87,230ZM253.76,361.93a131.2,131.2,0,0,1-83.38-29.79L355.86,146.65A131.25,131.25,0,0,1,385.65,230C385.65,302.76,326.49,361.93,253.76,361.93Z"/><path class="cls-3" d="M215.06,131.85c-.26-1.31-2.51-.59-3.11-1.55a1.25,1.25,0,0,0,1-1.21c-1.72-.6-3.39.27-3.45,1.9C210.65,131.84,214,133.62,215.06,131.85Z"/><path class="cls-3" d="M126.3,174.24c0-1.19-1-1.41-1.72-1.2C121.4,174,126.23,177.33,126.3,174.24Z"/><path class="cls-4" d="M437.53,242.31a37.9,37.9,0,0,1-.86-9.65c-2.19-3.13-5.74-4.59-9.14-5.86a108.91,108.91,0,0,1-10.68-4.48c-6.73-3.39-13.42-7-20.16-10.17-13.63-6.4-26.75-13.76-40.15-20.51q-40.32-20.25-81.68-39.46c-.14-5-1.31-11.55-1.55-17.23a23.86,23.86,0,0,0,0-2.93c-.39-1.92-2.44-3.12-2.94-4.65-1.47.07-2.86-.31-4.13.17-5.25,2-10.15,8.37-14.13,10.85-2.07-3.25-.4-11.12-1.89-15.33-1.24-3.46-4.86-3.39-7.41-1.38-1.85,3-2.08,7.59-3.11,11.38-2.22.36-3.68,1.49-6.38,1.37-.23-3,.22-7.84-.86-10.51-.46-1.14-1.84-2.65-2.76-2.76-1.89-.24-2.11,1.41-4.3,1.21-4.47,4.32-7.92,9.67-12.41,14-.53-1.5-3.05-.28-3.1.86.24,1.12,1.82,0,2.24.34-1.2,1.5-4.18-.89-4.66-2.75-.28-1.13.14-2.28,0-3.28-1.19,1-2.3-1.72-1.72-3.44a4.66,4.66,0,0,1-4-.18c.16-.44.36-1.37-.17-1.54-1.56-.07-2,1-2.25,2.23-10.52,2-14.11,10.93-17.4,20.16.56,1,.29,2.71.34,4.14-6,3.51-11.68,7.39-18.44,10.17-.3-.39-.32-1.07-1.2-.86s-.39,1.56-1,1.89c-5.47,2.38-11,4.39-16.55,6.72s-11.55,3.76-17.75,5.52c-.56,0-.37-.78-1.21-.52-.52.45-.11,1.84-.86,2.07-.42-2.71-5.33-.86-3.1,1.37,1.27.4,2.07-.66,3.1-1,3.33,3.38,9.2.67,12.59-.69,14.16-5.74,31.71-10.94,45-16.38,1.23.48,2-.38,3.1-.52.74,1.51,3.08,2.13,5.34,1.56-2.2,1.73-4.46,3.27-6.72,5s-4.15,3.79-6.37,5.34a70.92,70.92,0,0,0-6.21,4.31,105,105,0,0,0-8.44,8.1c1.24-.07.07,1.5.69,2.23-10.06,8.81-16.45,21.78-25.68,31.2a40.25,40.25,0,0,0-4.13,4.13c-.43.61-.48,1.45-.87,2.07-1.46,2.36-4,4.26-4.3,7.41.68.51.23,1.47.69,2.41-3.12,4.71-10.31,5.32-12.93,10.51-4.34,1.92-9.84,2.69-15,3.79-.77.85-1.85,1.37-2.59,2.24-2.26-.52-5,.11-7.92-.17-2.22-.21-4.53-1.06-6.21-.51-1.3.42-3,2.78-2.41,4.48.28.86,1.07.65,2.06,1.21.67.36,1.26,1.12,1.91,1.38,2.86,1.1,4.82-.37,7.06-.7,2.68-.39,5.26.15,7.23-.85a23.41,23.41,0,0,1,2.94,1.55,50,50,0,0,0,16.71-8.1c2.83.07,3.39-2.14,4.65-3.62,2.44-2.85,6.15-5.75,7.93-8.8.3-.65-.51-1.07-.17-1.2a6.19,6.19,0,0,0,1.72-.69,39.25,39.25,0,0,1,4.14-5.34c2.64-2.91,5.46-5.36,7.93-8.45,6-7.57,12.87-14.77,18.09-22.91,1.09-1.7,1.73-3.65,2.76-5.52.43-.8,1.39-1.75,2.06-2.76s1.2-2.47,1.9-3.1c1.26-1.13,3.61-1.77,5.35-2.75,3.7-2.11,6.51-4.52,9.81-6.73,1.69-1.13,3.67-2,5.18-3.1,4.22-3.14,7-7.27,11-10.52a5.22,5.22,0,0,0,2.24,3.63c-.49,2-1.79,3.26-1.54,6,.58,1.13,2.08,1.37,3.61,1.55a11.68,11.68,0,0,1-3.79,5.17c-2.67,2.22-5.94,3.78-8.79,5.86-8.54,6.22-16.39,13.55-25.33,19.13-1.1,3-2.8,5-4.48,7.75-3.91,6.37-7.57,12.54-11.55,18.78-3.81,6-7.39,12.65-11.37,19-1.63,2.58-5.67,6.53-2.59,8.62-3.34,3.24-6.61,6.63-9.64,10.17s-6.48,7.18-7.76,12.23a53.84,53.84,0,0,0-6.72,7.41c-2.37,3-5.35,6.53-6,10.86-4.64,1.11-9.84,4.63-14.48,6.72-1.65.75-4.07,1.34-4.3,2.93a5,5,0,0,0,5.16,5.34c2.78-1.34,4.53-3.16,6.9-4.83s4.85-3.33,7.23-5.17c1.21-.93,2.45-2.34,3.45-2.75.69-.29,1.53-.11,2.24-.34,3.34-1.1,6.51-5,8.44-7.58a39.73,39.73,0,0,0,6-10.18c1-.49,1.76-1.63,2.41-1.89,4.4-6.86,8.08-14.44,12.58-21.2a12.16,12.16,0,0,1,.52-2.06c12.51-7.05,15.78-22.71,22.57-35.5,2.13-4,4.68-7.59,6.72-11.38,4-1.55,7.12-4,10.52-6.37,2.79-2,5.51-4.2,8.09-6.21,5.44-4.23,11.06-8,16.54-12.06,2.79,4.17,6.55,7.36,13.45,7.41a7.76,7.76,0,0,0,3.1,6.38c-2,6.31-5.16,11.25-7.76,17.06-1.39,3.12-3.27,5.76-2.58,10-6.45,8.16-12.46,16.54-18.95,24.47a33.42,33.42,0,0,0-5.69,9,49.39,49.39,0,0,1-10.34,6.2c-.51.46-.37,1.57-1.21,1.71-2.67.32-6,0-7.58,1.39-2.19-.15-5.19-.52-7.41.17a28.84,28.84,0,0,0-2.76,1.55c-1.46.68-2.69.66-2.75,2.06-.09,1.92,3.05,2.92,4.47,3.11,4,.55,7.78-1.26,10-2.41,3.54,2.16,6.14-1.57,8.27-1.9.85-.13,1.76.45,2.59.34,1.74-.21,3.73-2.21,5.34-3.44,2.7-2.06,4.68-3.86,6-6.38,9.63-8.31,18.09-18.51,23.6-30.84.79-1.78,1.45-4.41,2.41-5.51s2.65-1.45,3.29-2.76c2.57-8.91,5.33-17.64,9.3-25.16.34.68,0,2.11.69,2.4,2.51.77,4.24-.65,6.54-.68a13.33,13.33,0,0,1,4.49-3.79c.16.4.3.84,1,.69,1,18.45,1.5,39.06,2.42,58.59.32.78-.62.3-.69.69a19.74,19.74,0,0,0,3.44,3.27c.84,4.31,2.63,8.45,4,12.92,1.29,4.31,2,8.89,3.44,13.45,2.07,6.6,3.59,13.41,5.35,20,1.19,4.44,2.25,9.69,6.2,10.86,3.12,7.91,6.43,15.63,12.58,20.5.77,0,1,.49,1.9.35,1,2.12,2.34,4.34,3.62,6.55,2.47,4.26,3.88,9.29,9.65,9.82,2.09,3.12,5.19,6.95,9.31,8.27,2,.65,9.16,1.31,10.16-.17,1.28-1.9-.93-4.74-1.89-5.51a26.81,26.81,0,0,0-11.38-4.83,5.12,5.12,0,0,0-.17-1.9c-1.39-1.35-1.69-3.12-2.92-4.83-1.09-1.49-3.32-2.81-4.84-4.48-1.25-1.36-4.1-3.65-4.47-5a17.62,17.62,0,0,1,0-2.41c-.62-4.2-4.16-7.73-6.38-10.69-1-1.38-2.43-3.19-3.8-4.82-1.17-1.41-3.63-3.09-4.13-4.49-.39-1.08.11-2.53,0-3.61a51.41,51.41,0,0,0-1.89-8.28c-2.35-7.83-6.43-14.51-9.32-21.7-2.74-6.9-4.75-13.71-7.4-20.69,2.54-2.22,2.09-6.54,2.06-11.2,0-7.72-2.1-13.25-3.1-19.65-1.57-10.13-1-21-1.55-30.84,3.49-1.92,9.06-.39,13.61-.34-.15,1.84.76,3.32,1,4.48.46,1.91.35,4,.7,6a49.81,49.81,0,0,0,5,15.68c.05.7.91-.27,1,.52,3,8.4,7.53,17.3,11.88,25.16,1.74,3.12,4.25,6.89,7.76,7.58,3.44,4.71,6,12.45,13.09,13.44,2,2.08,4.21,4,8.28,4,1.94,1.84,3.75,5.17,7.07,5.69,7,1.1,6.74-7.11,2.23-9-1.91-.78-4.12-.34-6.54-.68a13.4,13.4,0,0,0-8.45-4.82c-2.57-4.44-7.12-6.9-11.2-9.83.81-4-1.54-5.78-3.11-8.1-6.51-9.6-10.35-21-16.53-30.5-.86-5.58-1.73-12.06-1.21-18.44,9.64,2.85,20.24,6,29.29,10,5.36,6.65,8.86,16,15,22.22,2.55,2.62,4.86,5.94,8.61,6.55a261.76,261.76,0,0,0,16,31.54c3.37,5.57,5.41,10.84,11,14,2.56,1.42,5,2.4,5.86,4.83.4,1.13.24,2.23.53,3.1.73,2.24,2.22,3.11,3.61,4.64a25.63,25.63,0,0,0,2.24,2.59c1.2,1,4.16,1.66,5.17,2.76.61.67.66,1.9,1,2.58,1.59,2.87,4.7,5.73,8.26,6.38,2.46,2.83,6.76,8.42,12.59,7.24,1.29-.26,2.75-1.46,4.13-2.06,2.11-3.88-1.15-6.11-3.62-7.25-3.24-1.49-7.82-2.64-9.64-4.48a17.28,17.28,0,0,0-5.52-5.17h-2.75c-1.06-6.87-6.84-9-10.69-13.09,1.51-6.28-3.14-9.74-6.2-13.79-4.93-6.53-9.26-11.39-14.14-17.58-2.41-3.05-5.23-6.05-6.89-9-.6-1-.82-2.25-1.38-3.27-.39-.74-1.19-1.42-1.73-2.24-.89-1.39-1-3.12-2.75-3.27,2.16-1,1.06-4.91.18-6.39-2.58-4.3-8.91-9-10.69-12.57,9.39,5.5,19.3,10.94,28.44,17.4,6.69,4.74,13.16,9.94,19.47,14.83,2.2,1.7,4.78,3,6.89,4.64s4.06,4,7.07,5c3.36,1.13,8.54.16,10.68-1,2.78-2.68,1.73-8.12.69-11.9-.59-.49-1.29-.89-1.39-1.89-2.89-2.08-5-5-7.57-7.41-5.29-4.87-11-9.16-16.2-13.95a81.67,81.67,0,0,0-8.1-7.07c-3-2.08-6.47-3.65-9.65-5.52-9.61-5.63-18.56-11.9-27.92-17.75-.19-.36-.19-.36.17-.17h.18c4.13,2.39,8.77,4.3,13.1,6.73,12.39,6.93,23.85,14,37.4,20.33,8.24,3.81,16.05,9.37,24.29,14.13,3.77,2.19,7.61,4.94,11.89,7.24,1.82,1,4.5,1.75,6.54,3.09s4.73,2.84,6.55,3.11c2.07.3,5.4-.26,5.87-1.72C438.78,244.53,437.83,243.4,437.53,242.31ZM263.65,146c-.54-.08-.39.53-1,.34.34-.86.65-2.84,0-3.62,1.05-1.65,2.43-3,3.46-4.65.62,3.17.14,7.44,1,10.34C266,147.62,263.46,147.48,263.65,146Zm18.44,23.6c-.52-.1-.26-1-.69-1.2-.68.11-.5,1.11-.51,1.9l-4.14-1c-1.27-4.19-4-6.87-6-10.33,4.55,2.91,9.37,5.55,14.3,8.09C284.37,168.19,282.86,168.53,282.09,169.58Z"/><path class="cls-5" d="M246.76,124.09a76.15,76.15,0,0,1-.16,7.93c-1-.06-1.42.54-2.25.69,0-3.07,1.43-5.36,1.21-8.1C246.2,124.68,246,123.91,246.76,124.09Z"/><path class="cls-5" d="M228.33,125c.82,2.58.73,6,.86,9.31-.72.37-2.18,0-2.93.35.21-3.35,1.56-5.56,1.55-9.14A.86.86,0,0,0,228.33,125Z"/><path class="cls-5" d="M199,131.67c1.56.17,2.06,1.39,3.44,1.73a11,11,0,0,0,1.9,4.82c.36.47,1.9,1.62,1.9,1.9,0,.79-1.39.93-2.08,1.55-1.1-3-1.63-6.38-3.6-8.44C200.09,132.71,199,132.57,199,131.67Z"/><path class="cls-5" d="M270.37,132.54c0,6.48,1,12,1.38,18.09a8.18,8.18,0,0,1-1.89-.86C270.29,144.29,269.74,137.81,270.37,132.54Z"/><path class="cls-5" d="M234.88,137.36a3.25,3.25,0,0,0,.69,1.55,10.8,10.8,0,0,0,2.75.18c-1.95.61-4.53,0-7.24.17a40.06,40.06,0,0,0-9.82,2.41c-2,.7-4.1,1.28-6,2.07s-3.82,2.14-5.86,2.24c.3-2.18,4.18-2.26,5.86-3.62.64-.37.52.33,1.38.17,3.24-2.27,8.17-2.85,12.75-3.79.58-.05.35-.91.86-1C231.89,137.7,233.11,137.26,234.88,137.36Z"/><path class="cls-5" d="M242.81,140c.07-.39.84-.08,1.2-.18C243.92,140.36,243.18,140,242.81,140Z"/><path class="cls-5" d="M234.88,141c3.88.42,7.11-.51,10,0,.93.17,2.28,1.44,3.29,2.07,2.33,1.47,4.34,2.56,5.85,4.65-2.72,3.86-6.86-.84-11.37-.34.28,1.49,2.55,1,3.45,1.89-2.69.15-5.63-.91-9.13-.52-1.6-1.39-4.1-1.87-4.83-4.13.32-1.1.52-2.29-.17-3.1.64.13.82-.21,1.37-.17,1.14,2.84,3.24,5.58,7.07,5.16C238.53,144.68,235.83,143.7,234.88,141Z"/><path class="cls-5" d="M207.81,141.33c-.61.62-1.51,1.77-2.41,1.55C206,142.13,206.71,141.05,207.81,141.33Z"/><path class="cls-5" d="M190.07,141.33c.2,1.24-1.83,1.72-2.76,2.41C187.64,142.34,189.11,142.09,190.07,141.33Z"/><path class="cls-5" d="M209.37,142c.52.16.77.61,1.55.51a11.16,11.16,0,0,1-3.45,2.42C206.29,143.81,209,143.19,209.37,142Z"/><path class="cls-5" d="M228.33,142.19c.18,2.83-.35,4.94-1.9,6-.09-1.57,1.52-3.72.86-5.86A1.43,1.43,0,0,1,228.33,142.19Z"/><path class="cls-5" d="M226.26,142.53c.33,1.73-1.21,4.53-1.72,6.55-.73.25-1.17.79-2.07.86a22.66,22.66,0,0,0,1.89-7.06A10.69,10.69,0,0,0,226.26,142.53Z"/><path class="cls-5" d="M260.2,142.88c.09.54-.3.6-.17,1.2-.64,0-.73-.65-1.37-.69A1.08,1.08,0,0,1,260.2,142.88Z"/><path class="cls-5" d="M223.84,143.22c-1.11,2.45-2.08,5-3.09,7.59a3.78,3.78,0,0,1-1.56.51,38.15,38.15,0,0,0,2.93-7.58A6.09,6.09,0,0,1,223.84,143.22Z"/><path class="cls-5" d="M189.55,143.74c.2,0,.15.32.17.52-.62,1.22-2.37,1.3-3.27,2.23-.48-.33.23-.89.16-1.37C188.06,145.12,188.59,144.22,189.55,143.74Z"/><path class="cls-5" d="M220.4,144.26c.31,0,.35.16.17.17-1.17,2.8-1.9,6-3.79,8.1a52.07,52.07,0,0,0,2.06-7.41C219.21,144.68,220,144.68,220.4,144.26Z"/><path class="cls-5" d="M188.87,146.14c.74,1.07-1.76,1.8-2.77,2.25C186.25,146.86,188.23,147.19,188.87,146.14Z"/><path class="cls-5" d="M190.59,147.53a.74.74,0,0,1-.69,1.2C189.81,148,189.9,147.47,190.59,147.53Z"/><path class="cls-5" d="M188.52,148.39c.38,0,.07.61.17.86a10,10,0,0,1-2.42,1.21v-1A13.29,13.29,0,0,0,188.52,148.39Z"/><path class="cls-5" d="M190.75,149.6c-.16.46-.28,1-1,.86a1.07,1.07,0,0,0,.18-.69C190.31,149.84,190.27,149.45,190.75,149.6Z"/><path class="cls-5" d="M192.83,150.46a1.11,1.11,0,0,1-1.21.86A.77.77,0,0,1,192.83,150.46Z"/><path class="cls-5" d="M209.89,150.28c-.4,3.49-2.68,7.4-1.9,12.07-.68-.06-1.65.16-2.06-.17C206.48,157.45,207.65,153.35,209.89,150.28Z"/><path class="cls-5" d="M188.69,150.46c.3,1.1-.93.68-1,1.38,0,.14.18.17.18.34.63.11.66-.37,1.2-.34.1.25-.2.89.17.86.24-.74.46-1.5,1.39-1.55.47,1.08-1.53,1.33-.18,1.72-1.09.45-2.4-.36-3.26-.69.44-.73-.24-.46-.36-1C187.66,151.16,187.91,150.54,188.69,150.46Z"/><path class="cls-5" d="M235.57,151.67a61.77,61.77,0,0,0-4.15,7.92c-1-3.61,2.11-5.47,2.42-7.75A1.56,1.56,0,0,1,235.57,151.67Z"/><path class="cls-5" d="M194,151.67c.9.15-.22.81,0,1.37C193.51,152.72,194.24,152.23,194,151.67Z"/><path class="cls-5" d="M238.67,152c-1.59,3-3.29,6-5,9a6.18,6.18,0,0,1-2.07,2.59A94.61,94.61,0,0,1,237.11,152Z"/><path class="cls-5" d="M192,152.18c.69-.05.38,1.41-.35,1C191.52,152.66,191.67,152.35,192,152.18Z"/><path class="cls-5" d="M256.76,152.53c-1,1.74-2.48,2.92-3.28,4.82h-1.89c1.26-1.78,2.86-3.23,4.14-5C256.25,152.23,256.35,152.53,256.76,152.53Z"/><path class="cls-5" d="M260.72,153.21c-1.31,1.56-3,2.8-3.79,4.83a13.3,13.3,0,0,1-1.9-.69C256.86,155.78,256.87,152.29,260.72,153.21Z"/><path class="cls-5" d="M246.76,153.21c-.52.35-.91,1.54-1.55,1.21C245.49,153.78,245.8,153.18,246.76,153.21Z"/><path class="cls-5" d="M249.35,153.56c.18-.39,1.08-.06,1.54-.17-1.49,1.48-2.68,3.29-4.29,4.65C246.55,156.38,249.61,155.43,249.35,153.56Z"/><path class="cls-5" d="M203,153.74h.52c-.95,1-.13,3-.52,4.47-.23.84-2.19,2.46-3.27,3.45-7.92,7.22-16.74,15-25.33,21-.42-.65-.06-2,.17-2.58,9.1-7.5,18.92-14.28,27.06-22.75C201.05,155.86,202.82,155.43,203,153.74Z"/><path class="cls-5" d="M227.81,154.07c.28.29-2,4.19-2.93,1.73A22.34,22.34,0,0,0,227.81,154.07Z"/><path class="cls-5" d="M183.86,157c-1.63,2.84-6.2,2.75-9.65,3.79,2.77-1.66,6-2.84,9-4.31C183.73,156.34,183.53,156.94,183.86,157Z"/><path class="cls-5" d="M266.07,157.35a27.3,27.3,0,0,0-3.1,1.9c-1,.6-2.2,1.7-3.11.87,1.77-1.29,3.72-2.38,5.52-3.63C265.67,156.71,266.06,156.85,266.07,157.35Z"/><path class="cls-5" d="M223.5,156.66a3.16,3.16,0,0,1,.69,1.38c-2.84,1.57-5.39,3.47-8.79,4.48C216.83,160,221,158.67,223.5,156.66Z"/><path class="cls-5" d="M266.93,158.39a2.87,2.87,0,0,1,1,1.89c-2.12.58-3.45,1.94-5.35,2.76-.2-.54-.74-.75-.86-1.38A40.56,40.56,0,0,0,266.93,158.39Z"/><path class="cls-5" d="M190.07,159.25c.07.59-.94.1-1,.52C188.54,159.31,189.6,158.85,190.07,159.25Z"/><path class="cls-5" d="M256.24,159.94c.39,1-.38,1.59-.51,2.58-.84-.52-1.66-1.57-2.76-1.72-.66-.1-1.69.45-2.58.52-.4,0-.81-.26-1-.18-1.73.64-1.78,3-2.75,4.14-.53-1.31-.31-3.38-.36-5.16C249.05,159.54,253.33,158.61,256.24,159.94Z"/><path class="cls-5" d="M241.94,170.62a6.93,6.93,0,0,1-2.76,1c-.68-2-1.67-3.72-1.37-6.72a10,10,0,0,1,4.65-3.79C243.41,164.07,242.38,168,241.94,170.62Z"/><path class="cls-5" d="M268.48,161.14c.35.16.37.66.34,1.21-1.92.66-3,2.14-5,2.76-.47-1,1-1.61,1.73-2.07A11.65,11.65,0,0,0,268.48,161.14Z"/><path class="cls-5" d="M258.14,161.49c1.23.74,2.91,1.7,2.58,3.44,2.34,1.53,3.19,4.51,3.62,7.93.06.69-.8.47-.87,1,0,.9.78.44,1,.7-.11,1.29.49,2.39-.17,3.27-1.37-2-2.42-4.25-5.51-4.48-.13-.51-.53-.75-.87-1C257.79,168.47,256.63,164.84,258.14,161.49Z"/><path class="cls-5" d="M227.11,162.35c-2,.84-2.18,4.74-1.37,6.89a3.13,3.13,0,0,0-2.93-1.38,47.92,47.92,0,0,1,.18-5.17C224.05,162,226,161.07,227.11,162.35Z"/><path class="cls-5" d="M269.34,163.21c0,.54.46.58.34,1.21-1.8.61-3.13,2.61-5,2.58-.19-1.12,1.27-1.51,2.07-2.07A9.68,9.68,0,0,1,269.34,163.21Z"/><path class="cls-5" d="M216.78,164.25c.78,1.26-.27,3.61,0,5.51a7.26,7.26,0,0,1-1.55.86C215.27,167.68,215.12,165.59,216.78,164.25Z"/><path class="cls-5" d="M210.23,164.93c.26.81-1.62,2.39-1.2,4.49-.9-.66-1-2.14-1.22-3.44C208.53,165.53,209.56,165.42,210.23,164.93Z"/><path class="cls-5" d="M270,165.28c.3.16.38.54.34,1-.88.33-1.34,1.07-2.59,1,.19,1.06-1.08,1.2-1.71,1.89a13.42,13.42,0,0,0,4.13-1.72c.36.15.18,1.2,0,1.38-1.22-.18-2,.2-1.55,1.21-1.17.2-1.51,1.24-2.24,1.89a30.53,30.53,0,0,1-1-4A31,31,0,0,0,270,165.28Z"/><path class="cls-5" d="M219.7,165.63a3.9,3.9,0,0,1,.53,2.41C219.18,168.11,219.94,166.37,219.7,165.63Z"/><path class="cls-5" d="M213.51,166.65c.58.16.08.33.17.87H213C212.91,167,213.45,167.07,213.51,166.65Z"/><path class="cls-5" d="M213.51,168.9c-.12,1.37.48,3.48-1,3.44C212.67,171.06,211.82,168.72,213.51,168.9Z"/><path class="cls-5" d="M248.83,168.9c.63,4.64-1.5,8-2.41,11.72C244.8,175.72,247.58,172.42,248.83,168.9Z"/><path class="cls-5" d="M290.19,169.24c-.07.45-.52.53-.52,1-.54.08-.67-.25-1-.35C289.1,169.68,289.62,168.84,290.19,169.24Z"/><path class="cls-5" d="M233.49,169.58c.29,1-1.66,2.69-2.58,3.63C230.15,171.65,233.1,171.1,233.49,169.58Z"/><path class="cls-5" d="M206.09,171.31c.41.06.39.53.69.69a.83.83,0,0,1-.85.34C205.91,171.94,206.22,171.84,206.09,171.31Z"/><path class="cls-5" d="M234.88,171.65c0,1-1.3,1.87-2.07,2.77s-1.51,2.14-2.42,2.41c-.48-1.05.93-1.57,1.56-2.24C232.9,173.56,233.67,171.81,234.88,171.65Z"/><path class="cls-5" d="M293.64,172c2.45,1.29,4,5,5.86,7.41-.2.78-.65,1.31-.87,2.06A95.29,95.29,0,0,1,293.64,172Z"/><path class="cls-5" d="M272.79,172c-.06.3-1.23.89-1.21.17C271.8,171.94,272.33,172,272.79,172Z"/><path class="cls-5" d="M278,173a40.51,40.51,0,0,1-7.58,2.4c.47-1.15,2.22-1.33,3.45-1.72S276.64,172.67,278,173Z"/><path class="cls-5" d="M224.36,175.1a28.45,28.45,0,0,0-1.2,10.34c-1.39-2.27-2.38-10.13-.35-12.23C223.69,173.48,223.69,174.63,224.36,175.1Z"/><path class="cls-5" d="M267.78,173.21c-.1.63-1,.47-1.54.68A2.2,2.2,0,0,1,267.78,173.21Z"/><path class="cls-5" d="M231.42,178.55c.15.66.34,1.34-.51,1.38a2.77,2.77,0,0,0-.17-1.21c1.5-1.76,3.31-3.23,4.83-5,.19,0,.3,0,.34.17C236,175.46,233,177.56,231.42,178.55Z"/><path class="cls-5" d="M229.36,173.89c.53-.12.5.3,1,.18a3.94,3.94,0,0,1-.52.86A1,1,0,0,1,229.36,173.89Z"/><path class="cls-5" d="M256.59,187.69c.22-3.15-1.27-6.72-.69-10.17.48-2.88,4.8-2.45,5.34-.18s-.75,4.19-1.56,5.52C258.66,184.57,258.07,187,256.59,187.69Z"/><path class="cls-5" d="M133.54,176.31c.4.57-2.6,1.29-4.47,1C130.32,176.77,132.32,176.94,133.54,176.31Z"/><path class="cls-5" d="M236.08,176.31c.68.16.13,1,0,1.38-.2-.26-.5-.42-.51-.86A.93.93,0,0,0,236.08,176.31Z"/><path class="cls-5" d="M252.28,176.66c1.05,1.73-.81,3.09-1,4.64C250.43,179.09,251.44,178,252.28,176.66Z"/><path class="cls-5" d="M225.58,177.34c1.7,4.2,2,9.78,1.88,15.85-.44-1.33-2.19-2.65-2.58-4.48C224.11,185.07,225.41,180.65,225.58,177.34Z"/><path class="cls-5" d="M292.94,177.52a.47.47,0,0,1,.36.51c-.89.27-2.26,1-2.94.86C290.78,178,292.32,178.2,292.94,177.52Z"/><path class="cls-5" d="M238.15,177.69c.38.47.82.9,1.21,1.37a72,72,0,0,0-5.35,5.69,2.89,2.89,0,0,1-1.89-.68C234.09,181.9,236.17,179.85,238.15,177.69Z"/><path class="cls-5" d="M244.52,178.72c.63,4.14,0,8.5-1.55,11C241.53,185.53,243.16,181.93,244.52,178.72Z"/><path class="cls-5" d="M268.13,179.23c.4.41-.5,1-1,1C266.91,179.39,268.1,179.89,268.13,179.23Z"/><path class="cls-5" d="M234.36,179.41a26.58,26.58,0,0,0-2.76,3.45C230.86,181.1,232.32,179.44,234.36,179.41Z"/><path class="cls-5" d="M294.16,179.58a3.23,3.23,0,0,1-2.94,1A15.21,15.21,0,0,1,294.16,179.58Z"/><path class="cls-5" d="M265.55,180.27c.39-.05.19.5.52.52.05.39-.51.19-.52.51C264.93,181.18,265.31,180.5,265.55,180.27Z"/><path class="cls-5" d="M304,180.62c1.24.26,3.76.72,4.49,2.06,3.16.75,5.35,2.46,7.75,4-1.26.9-3.35-.8-4.82-1.38-1.81-.71-3.76-1.18-5.52-1.73A18.08,18.08,0,0,0,304,180.62Z"/><path class="cls-5" d="M300.18,180.62c1.19,1.08,2.21,3.23,3.62,5.51,1.94,3.1,4.14,4.79,2.76,9.48-2.72-4.23-4.94-9-7.58-13.27C299.31,181.69,300.18,181.59,300.18,180.62Z"/><path class="cls-5" d="M172.15,181.13c.31.61-.2,1.87,0,2.94-1.34.61-2.28,1.53-4.14,1.2C168.1,182.61,170.36,182.1,172.15,181.13Z"/><path class="cls-5" d="M252.79,181.65c.1,1.54,1,4.08.52,5.69-.35,1.15-1.81,1.4-2.24,1.89C250.57,185.63,252,183.94,252.79,181.65Z"/><path class="cls-5" d="M285.54,182a5.2,5.2,0,0,1,2.07.34q0,4.23,2.58,5.86c0,.51-.38.53-.34,1a2,2,0,0,0,2.42,1c.11-1.1-1.17-.79-1.22-1.72.63,0,.67-.25,1.22,0-1.26-1.63-2.69-3.06-2.77-5.87,2.24.19,4.16.68,6.38.86,1.87,2.82,0,7-2.58,7.93-2.49-.33-4.8-.84-7.24-1.2C284.37,188,284.84,185,285.54,182Z"/><path class="cls-5" d="M219.53,184.41c1,.69,1.1,2.35,1.39,3.79-3.73.57-4.58-1.74-5.86-3.62,1,.72,2.93,1.81,4.47.86Z"/><path class="cls-5" d="M247.8,184.75c.18,2.47-.34,5.75-.18,8.79h-2.41C245.91,190.45,247,187.74,247.8,184.75Z"/><path class="cls-5" d="M307.25,186.13c2.52.13,5.15,1.63,7.59,2.42a7.72,7.72,0,0,1-4,3.27C309.64,190,308.41,188.08,307.25,186.13Z"/><path class="cls-5" d="M277.26,187.16c.71-.07,0,.44,0,.69.19,1.11,2-.33,1.91,1.21-1.18-.32-2.64-.36-3.8-.69A4.47,4.47,0,0,1,277.26,187.16Z"/><path class="cls-5" d="M232,188.37c1.47.36,2.73.95,4.3,1.21a17.54,17.54,0,0,0-.86,3.1c-1.12-.31-2.33-.54-3.44-.86Z"/><path class="cls-5" d="M282.27,188.71c.46-.12-.13.81.34.7-.06.23-.43.14-.69.17C281.79,189.05,282.39,189.25,282.27,188.71Z"/><path class="cls-5" d="M167.15,189.23a80.85,80.85,0,0,1-5,7.06c-2.74,3.79-4.74,7.72-9.48,9.49,4.28-5.73,9.13-10.87,13.1-16.89C166.46,188.78,166.46,189.35,167.15,189.23Z"/><path class="cls-5" d="M253.31,189.23c1.14,2.59-1.2,3.43-2.06,5C250.66,192,252.5,190.67,253.31,189.23Z"/><path class="cls-5" d="M240.73,189.58a7.34,7.34,0,0,1-.34,6.2A9.51,9.51,0,0,1,240.73,189.58Z"/><path class="cls-5" d="M317.76,189.92a10.76,10.76,0,0,1,1.73.69,10.17,10.17,0,0,0,1.2,6,5.31,5.31,0,0,0-2.58,3.28C315,197.74,316.93,193.23,317.76,189.92Z"/><path class="cls-5" d="M276.75,191.3a6.93,6.93,0,0,1,1.55.34c-.46,1.21-.79,2.55-1.2,3.8a6.87,6.87,0,0,1-1.21-.35A38.27,38.27,0,0,0,276.75,191.3Z"/><path class="cls-5" d="M271.92,191.64a10.71,10.71,0,0,0-1.2,2.42,14.65,14.65,0,0,1-1.9-.34A3.78,3.78,0,0,1,271.92,191.64Z"/><path class="cls-5" d="M275,191.82a12.56,12.56,0,0,0-.87,2.93c-.48-.15-1.05-.21-1.55-.35C273.12,193.25,272.84,191.3,275,191.82Z"/><path class="cls-5" d="M280.89,192.16c1.05.15,2,.43,3.1.52,0,.81-.56,1-.52,1.89-1.15,0-1.68-.62-2.75-.68C280.6,193.13,281,192.92,280.89,192.16Z"/><path class="cls-5" d="M314.84,192.34c0,1.24-1.82,3.07-2.42,1.2C313.47,193.38,313.82,192.53,314.84,192.34Z"/><path class="cls-5" d="M307.76,192.68c2.36,3.49,6.38,5.35,6.21,11.37-.47.13-1.67-.92-2.07-1.72-.91-1.84-.67-5.1-2.24-6.2-.22,1.37.23,3.56.34,5.17C308,199.67,308.09,196,307.76,192.68Z"/><path class="cls-5" d="M285.54,193c.52-.12.51.3,1,.17-.34.75-.51,1.67-.86,2.42C284.46,195.4,285.43,193.88,285.54,193Z"/><path class="cls-5" d="M288.12,193.54a1.1,1.1,0,0,1,.86.18c-.7.67-.69,2.06-1.37,2.75C287.67,195.39,288,194.57,288.12,193.54Z"/><path class="cls-5" d="M253.48,193.89c1,1.75-1.69,2.77-2.23,4.13C250.6,195.94,253,195.38,253.48,193.89Z"/><path class="cls-5" d="M290.36,194.23a13.45,13.45,0,0,1,2.25.69c-.48.9-1.32,1.45-1.21,2.93-.8-.12-1.28-.57-2.07-.69A22.41,22.41,0,0,1,290.36,194.23Z"/><path class="cls-5" d="M294.16,195.44c1.9.33,3.15,1.33,4.82,1.89-.55.95-1.13,1.86-1.72,2.76-1.46-.6-3-1.16-4.49-1.72C293,197.12,293.82,196.53,294.16,195.44Z"/><path class="cls-5" d="M282.78,196.64c-.32.5-2.66.17-2.59-.86C280.91,195.58,282,196.32,282.78,196.64Z"/><path class="cls-5" d="M188.52,196c.09,2-.58,4.71-2.93,4.82C186.46,199.07,186.92,196.94,188.52,196Z"/><path class="cls-5" d="M233,196.13c-3,6.79-6.09,15-9.13,22.4.12,3.06-1.64,6.6-3.44,7.75.49-5.44,2.67-9.62,4.48-14.3a67.32,67.32,0,0,1,5.69-12.23c0-1.71,1-2.3,1.2-3.8C232.32,195.87,232.38,196.27,233,196.13Z"/><path class="cls-5" d="M253.66,197.16c1,2.19-1.93,3.33-2.41,5.17-.4-.3-.07-1.31-.18-1.9C252.27,199.69,252.67,198.13,253.66,197.16Z"/><path class="cls-5" d="M322.41,198a19.27,19.27,0,0,1-4,2.24C319.79,199.61,320.83,196.29,322.41,198Z"/><path class="cls-5" d="M300.35,198a14.06,14.06,0,0,0,2.76,1.21c-.23,1-.63,1.78-.86,2.75a25.34,25.34,0,0,1-3.27-1.21C299.45,199.87,300.18,199.23,300.35,198Z"/><path class="cls-5" d="M278.3,198.37a66.86,66.86,0,0,0,1,15c.41,2.39,1.1,4.74.86,6.89-.85.23-.89-1.08-1-1.55-.67-2.07-1.28-4.45-1.91-6.89-1.07-4.2-2.44-8.18-1.72-12.93a.73.73,0,0,0,.17-.51Z"/><path class="cls-5" d="M325.17,199.23c-1.56.63-2.63,3-4.82,1.9C321.8,200.37,323.07,198.26,325.17,199.23Z"/><path class="cls-5" d="M183.86,199.23c.62.29-1,1.92,0,2.75-2.57,1.22-4.54,3-7.06,4.31.13-2.28,1.41-3.41,2.58-4.65.85.48-.68,1-.34,2.07C181.21,202.78,181.83,200.3,183.86,199.23Z"/><path class="cls-5" d="M304.32,199.92c1.66.38,2.31,1.88,1.72,3.62-1,0-1.29-.66-2.24-.69A20.71,20.71,0,0,1,304.32,199.92Z"/><path class="cls-5" d="M337.41,200.6c-.09.66-1,.49-1.72.53C336,200.82,337.06,200.33,337.41,200.6Z"/><path class="cls-5" d="M253.82,201c1.54,2.75-1.41,4-2.41,5.34-.46-.56-.32-1.74-.34-2.75C252.91,203.59,253.11,202,253.82,201Z"/><path class="cls-5" d="M339,201.3c3.51,2.06,6.24,4.9,9.82,6.89-.19.61-.73.87-.87,1.55-3.48.42-6.18-1.64-9-.34-.4-.39.06-.68,0-1.21C337,206.66,338.5,203.36,339,201.3Z"/><path class="cls-5" d="M314.84,201.82a90.23,90.23,0,0,1,6.37,9.3c1,1.61,2.19,2.33,2.06,4.66-1.76-.84-2.42-3.19-3.61-5-1-1.58-2.85-2.51-3.79-4C315.58,205.09,315.22,203.44,314.84,201.82Z"/><path class="cls-5" d="M336.55,202.5c.2,0,.14.32.17.52a11.19,11.19,0,0,1-2.58.34C334.8,202.94,336,203,336.55,202.5Z"/><path class="cls-5" d="M336.37,204.4c-.42,1-2.33.54-3.28,1C333.56,204.57,335.77,204.54,336.37,204.4Z"/><path class="cls-5" d="M321,205.09c.33.07.43.37.86.34.07.37-.12.46-.17.69A1.56,1.56,0,0,1,321,205.09Z"/><path class="cls-5" d="M254,205.78a2.09,2.09,0,0,1,.18,1.55c-1.05.51-1.64,1.46-2.77,1.89C251.08,207.57,253.19,206.86,254,205.78Z"/><path class="cls-5" d="M336.37,207c-1-.2-2,.48-2.75,0C334.19,206.69,336.5,205.32,336.37,207Z"/><path class="cls-5" d="M325.34,207a5.83,5.83,0,0,1,2.24.86A4.9,4.9,0,0,0,326,210.6a5.32,5.32,0,0,1-2.07-.68A22,22,0,0,1,325.34,207Z"/><path class="cls-5" d="M254.18,208.19c.14,0,.16.07.17.17.36,5.31,0,10.86,0,16.2s1.06,10.4,1.2,15a9.34,9.34,0,0,1,.52,5.34,223.59,223.59,0,0,1-2.41-36.18A.86.86,0,0,1,254.18,208.19Z"/><path class="cls-5" d="M171.8,208.71c1,.8-.13,1.89-.51,2.58a176.94,176.94,0,0,0-9,19.48c-1.11-4.12.88-6.25,2.24-9C166.79,217.37,168.9,212.36,171.8,208.71Z"/><path class="cls-5" d="M329.65,208.88c-.3,1-1.27,1.25-1.72,2.06C327.76,210.29,328.64,208.36,329.65,208.88Z"/><path class="cls-5" d="M337.93,209.05c.06.36-.12.46-.18.69-.42,0-.53-.27-.86-.34A1.42,1.42,0,0,1,337.93,209.05Z"/><path class="cls-5" d="M350.68,209.4c.51,0,.58.44,1,.52-.52,1.73-.68,3.85.34,5.16-1,.44-2.62.25-3.27,1C348.63,213.78,349.84,211.32,350.68,209.4Z"/><path class="cls-5" d="M253.14,209.74v1.38c-.81.16-1.2.75-2.07.86C251.22,210.69,252.3,210.34,253.14,209.74Z"/><path class="cls-5" d="M342.92,210.77c-.76.33-1.87.31-2.58.7a3.24,3.24,0,0,0-1-.7A4,4,0,0,1,342.92,210.77Z"/><path class="cls-5" d="M353.26,211.12c3.85,2.76,8.13,6,11.38,8.79-.93,1.42-4.38.32-5.17,1.89.42,1.27,2.72.48,3.79.35-1.3,1.8-5.33,1.78-6.2-.35.84-.83,2.86-.46,3.61-1.37.1-.85-1.08-.42-1.72-.52C356.36,217.75,352.67,215.88,353.26,211.12Z"/><path class="cls-5" d="M346.89,211.29c-.3,1.79-3.93,2-4.82.86C344,212.21,345,211.34,346.89,211.29Z"/><path class="cls-5" d="M336,212.15a5.44,5.44,0,0,1-2.59,2.42C333.68,213.86,334.75,211.82,336,212.15Z"/><path class="cls-5" d="M253,212.32c.4.47.06,1.67.17,2.42-.59.27-1.46.26-1.73.86-.39-.3-.06-1.32-.16-1.89A15.58,15.58,0,0,0,253,212.32Z"/><path class="cls-5" d="M338.45,213.36c-.26,1.07-1.56,1.09-1.56,2.42-.17,1,1.36.24,1,1.37-1-.14-1.33-1-2.24-1.21C336.7,215.17,336.93,213.63,338.45,213.36Z"/><path class="cls-5" d="M340.51,214.57c1.29.27,1.81,1.28,2.93,1.72-.48,1.24-1.87,1.57-2.24,2.93a18.32,18.32,0,0,0-2.07-.86C339.57,217.07,340.07,215.85,340.51,214.57Z"/><path class="cls-5" d="M252.79,215.94c.33,12.91.56,26.88,2.94,38.26-1.45-.21-2-2.45-2.25-3.79-.39-2.63.07-6.15-.17-9.65-.25-3.69-.89-7.51-1.37-10.86-.71-4.77-.69-9.36.34-12.57-.38-.5-.4.85-1,.68C251.19,216.76,252.32,216.68,252.79,215.94Z"/><path class="cls-5" d="M353.78,217.5c-1.1.42-3.13.55-4-.17C351.13,216.69,353.16,216.12,353.78,217.5Z"/><path class="cls-5" d="M344.82,217.5c.57.28.93.79,1.55,1-.38,1-1.38,1.37-1.73,2.41-.73-.12-1.05-.66-1.72-.86C343.36,219,344.33,218.51,344.82,217.5Z"/><path class="cls-5" d="M355.5,218.87c-.51.53-2.15.44-2.76.35A4.54,4.54,0,0,1,355.5,218.87Z"/><path class="cls-5" d="M326.38,218.87c.84,1.35,2,2.37,2.24,4.31C327.73,221.88,326.32,221.12,326.38,218.87Z"/><path class="cls-5" d="M350,221.29c-.48.67-1.33,1-1.72,1.72-.87-.29-1.42-.89-2.24-1.21a22.31,22.31,0,0,1,1.55-2.07C348.68,220,349.13,220.82,350,221.29Z"/><path class="cls-5" d="M358.08,220.08a25.73,25.73,0,0,1-3.27.52C355.71,220.15,357.25,219.57,358.08,220.08Z"/><path class="cls-5" d="M353.26,223.69c-.09.95-1.18.9-1.21,1.9-.91-.4-1.49-1.15-2.4-1.55C350.3,222,352.13,222.25,353.26,223.69Z"/><path class="cls-5" d="M383.26,234.21a34.19,34.19,0,0,1-4.49,3.62c-1-.24-1.39-1.13-2.24-1.55,1.54-.82,3.23-1.48,4.65-2.41-1.79-1.48-4.57,2.49-6.37,1,1.13-1,2.84-1.4,3.79-2.58.85.06,1,.84,1.72,1,.06-1.69-1.94-2.54-3.28-3.45-2.14-1.43-5-2.84-5.51-5.86.16-.1.31-.2.34,0C376.11,227,379.56,230.71,383.26,234.21Z"/><path class="cls-5" d="M357.23,226.46c-.15.95-1.16,1-1,2.24-1.27-.8-2.3-1.84-3.62-2.59C353.9,224,355.75,225.3,357.23,226.46Z"/><path class="cls-5" d="M370.15,226.63a1.21,1.21,0,0,1,.7,1c-1.56.09-2.83,1.78-4.15,1C367.78,227.93,369.13,227.46,370.15,226.63Z"/><path class="cls-5" d="M358.78,227.84c1,.22,1.4,1.12,2.41,1.38-.47.73-1.25,1.16-1.72,1.89-.9-.26-1.24-1.07-2.07-1.38C357.78,229,358.57,228.71,358.78,227.84Z"/><path class="cls-5" d="M371.87,228.52c.26.15.55.26.52.7-1.24.16-2.42,1.21-3.44,1C369.85,229.6,371,229.21,371.87,228.52Z"/><path class="cls-5" d="M160.26,229.22c.24,2.12.9,4.7-.35,6C159.38,233.55,158.94,230.33,160.26,229.22Z"/><path class="cls-5" d="M374.29,230.07a11.2,11.2,0,0,1-3.62,1.55A7.93,7.93,0,0,1,374.29,230.07Z"/><path class="cls-5" d="M362.39,230.24c2.75,1.36,5.39,3.68,7.94,4.66a10.69,10.69,0,0,0-1.9,2.75c-3-1.22-4.82-3.55-7.41-5.16C361.22,231.48,362.11,231.17,362.39,230.24Z"/><path class="cls-5" d="M426.16,230.24a21.86,21.86,0,0,1,2.41,1c.63,3.76-.48,7.94-4.48,7.07C425,236.44,426.94,233.89,426.16,230.24Z"/><path class="cls-5" d="M377.73,231.8a16,16,0,0,1-4.13,2.07V233c-.56-.16-1,.11-1.55-.34C373.67,231.32,375.74,230.17,377.73,231.8Z"/><path class="cls-5" d="M157.67,233c.44,2.1,1,5.16-.69,6.21C156.14,237.35,156.25,234.05,157.67,233Z"/><path class="cls-5" d="M430.82,233.35c1.61,2.45.58,6.91-2.77,6.55C429.87,238.61,431.15,236.78,430.82,233.35Z"/><path class="cls-5" d="M373.6,237.49c-.31,1-1.4,1.24-1.73,2.24a19.11,19.11,0,0,0-2.24-1.21c.34-1.16,1.29-1.7,1.9-2.59A11,11,0,0,1,373.6,237.49Z"/><path class="cls-5" d="M154.91,236.79c0,1.81,1.37,4,0,5.18C154.77,240.52,154.39,237.8,154.91,236.79Z"/><path class="cls-5" d="M390.14,238.35c1,.58,1.59,1.5,2.59,2.06-1.07.54-2,1.24-3.1,1.73A8.55,8.55,0,0,1,390.14,238.35Z"/><path class="cls-5" d="M375.15,238.86c.6,0,.57.58,1,.69-.56,1.06-1.76,2.49-2.75,1.21A16.3,16.3,0,0,1,375.15,238.86Z"/><path class="cls-5" d="M153,239.21c-.16,1.33.7,2.93.51,4.13-.26,1.75-3.89,4.76-5,6-2,2.28-3.57,4.35-5.68,5.35,0-3.45,2.82-5.64,4.47-7.93C149.17,244.24,151,241.68,153,239.21Z"/><path class="cls-5" d="M378.08,241.1a2.86,2.86,0,0,1-1.9,1.73A3.65,3.65,0,0,1,378.08,241.1Z"/><path class="cls-5" d="M394.79,242.49a24.13,24.13,0,0,0-4.47,1.71c-.4-.29-.41-1-.52-1.55C391.75,242.89,393.91,240.71,394.79,242.49Z"/><path class="cls-5" d="M380.14,242.65c-.37.78-1.3,1-1.72,1.72C378.3,243.8,379.27,242.82,380.14,242.65Z"/><path class="cls-5" d="M397.21,244.2a33.55,33.55,0,0,1-6.38,1.9c-.11-.81,1.3-.78,2.41-1.21C394.66,244.35,396,243.13,397.21,244.2Z"/><path class="cls-5" d="M383.07,245.07c-.42.72-1.27,1-1.72,1.72-.64-.17-.85-.76-1.38-1C380.73,244.66,382,243.67,383.07,245.07Z"/><path class="cls-5" d="M121.82,245.24c.51.15-.22.43,0,.86H121C121.08,245.65,121.76,245.74,121.82,245.24Z"/><path class="cls-5" d="M399.44,245.93c.22.54.76.75.87,1.38-1.07.25-2.13,1.14-3.45,1.2s-2.49-.72-3.62-.69c-.74,0-.91.64-1.55.18A28.92,28.92,0,0,1,399.44,245.93Z"/><path class="cls-5" d="M400.48,249c1,1.28.1,4.23-.51,5.51-3.58,1.76-5.65-2-8.1-3.1C393.81,249.07,399,252.23,400.48,249Z"/><path class="cls-5" d="M354,263c1.48,1,.71,2.87.35,4.65C353.13,266.81,354.17,264.51,354,263Z"/><path class="cls-5" d="M192.31,265.4c-2.68,2.21-4.9,4.87-8.45,6.2.19-.64-.42-.48-.34-1a3.23,3.23,0,0,0,1.72-.86c.14-.6-.32-.73,0-1a42.94,42.94,0,0,0,6-3.61C191.82,265,192,265.3,192.31,265.4Z"/><path class="cls-5" d="M258.83,265.06a74.48,74.48,0,0,1,3.78,17.06A53.55,53.55,0,0,1,258.83,265.06Z"/><path class="cls-5" d="M356.19,266.27c1.68.84.49,3,.52,5-.72-.25-.85-1.1-1.38-1.55A19.44,19.44,0,0,0,356.19,266.27Z"/><path class="cls-5" d="M313.79,268.51a8.7,8.7,0,0,1,4.83,1.72A1.5,1.5,0,0,0,320,272C317.35,272.07,315.14,270.27,313.79,268.51Z"/><path class="cls-5" d="M358.78,269.71c3.59,3.82,6.49,8.32,9.65,12.58-4.46-1.17-7.41-5.35-10.17-8.79C358.54,272.35,358.48,270.84,358.78,269.71Z"/><path class="cls-5" d="M180.76,271.6c-.75,1-4.38,2.57-5.34.7C177.07,271.94,179.24,272.09,180.76,271.6Z"/><path class="cls-5" d="M171.45,273.15c.21,0,.15.32.18.52a18.48,18.48,0,0,1-7.41,1.22C166.31,274,169.6,274.28,171.45,273.15Z"/><path class="cls-5" d="M322.94,273.5c2.63.29,6-.18,6.2,2.58a8.53,8.53,0,0,1-6.38-1.89C322.74,273.88,323,273.83,322.94,273.5Z"/><path class="cls-5" d="M125.1,284.36c-1.27,1.82-2.23,4-3.79,5.51.12-.86-.17-1.58,0-2.24C121.54,286.7,124.38,284.3,125.1,284.36Z"/><path class="cls-5" d="M120.1,288.5c.12,1.26.14,3.92-.86,4.65C118.66,291.48,118.75,289.15,120.1,288.5Z"/><path class="cls-5" d="M117,291.77c1.06,3.54-1,7-4.48,7.06.27-1.34,1.24-2,1.9-2.93.21-.55-.56-.13-.35-.69.57-.06.35-.91,1-.86.32.43,0,1.51.68,1.55C117.77,295.51,115.94,292.52,117,291.77Z"/><path class="cls-5" d="M269.86,305a5.83,5.83,0,0,1-.69-2.25c1-.61,3.74-3.79,3.62-1.2C272.72,302.92,270.32,303.43,269.86,305Z"/><path class="cls-5" d="M383.94,301.24c1.19.94,2.95,1.3,4,2.42a3.27,3.27,0,0,1-1.72,1.2C385.45,303.64,384.58,302.56,383.94,301.24Z"/><path class="cls-5" d="M273.47,303.48a8.16,8.16,0,0,1,1,2.42c-1.08,1.1-2.53,1.84-3.62,2.93a8.77,8.77,0,0,1-.69-2.24C271.25,305.51,272.6,304.74,273.47,303.48Z"/><path class="cls-5" d="M389.1,305c.23.06.27.3.53.34a5.26,5.26,0,0,1-2.25,1.38C387.86,306.09,388.71,305.79,389.1,305Z"/><path class="cls-5" d="M390.66,306.59c-.34.37-.73,1.35-1.38.86C389.68,307.1,389.93,306.61,390.66,306.59Z"/><path class="cls-5" d="M275.2,308c.24.73.32,1.63.51,2.41a16,16,0,0,0-4.13,2.07c-.33-.36-.2-1.18-.52-1.55A19.3,19.3,0,0,1,275.2,308Z"/><path class="cls-5" d="M276.06,313.83a6.54,6.54,0,0,1-2.92,0C274.07,313.38,276.19,311.38,276.06,313.83Z"/><path class="cls-5" d="M276.75,317.79a42.11,42.11,0,0,1,3.1,4.31c-.14.78-.68,1.15-.68,2.06-1.28-1.59-1.59-4.16-2.76-5.86C276.31,317.93,276.74,318.07,276.75,317.79Z"/><path class="cls-5" d="M281.05,323.82c2.35,1.16.8,2.78-.16,4.48a4.89,4.89,0,0,1-.87-1.72A6.54,6.54,0,0,0,281.05,323.82Z"/><path class="cls-5" d="M283.65,326.58c.34.05.33.46.68.51-.64,1.31-1.63,2.27-2.24,3.63C281.83,329.24,283.34,328.05,283.65,326.58Z"/><path class="cls-5" d="M285.19,328.3c.7.23.82,1,1.38,1.38a11.33,11.33,0,0,0-2.58,4c-.77,0-.71-.89-1.21-1.2A31.12,31.12,0,0,0,285.19,328.3Z"/><path class="cls-5" d="M287.09,331.06c1.07.08.77,1.53,1,2.41a3.26,3.26,0,0,1-3.27,1.38C285,333.7,286.43,332.31,287.09,331.06Z"/><path class="cls-5" d="M292.94,339.84c-.61-.35-1.1-.84-1.72-1.2C291.82,337.93,292.64,339.23,292.94,339.84Z"/><path class="cls-5" d="M293.47,344.33c1.68-.07,3.26,1.44,4.65,2.23-.46,1.22-1.49,1.86-2.07,2.94A31.17,31.17,0,0,0,293.47,344.33Z"/><path class="cls-5" d="M299.33,348a4.08,4.08,0,0,1,1.71,3.1c-.71-.2-.66.36-1.2.34a4.82,4.82,0,0,0-1.21-.86c-.4.17-.83.31-.68,1C296.32,350.64,299.37,349.48,299.33,348Z"/><path class="cls-5" d="M303.29,354.84c2.39.87,5,3,7.93,4.14,1.76.7,4.07.72,4.47,2.24a17.42,17.42,0,0,1-4-.35C309.36,358.43,305.82,357.14,303.29,354.84Z"/><path class="cls-5" d="M223,129.61a50.76,50.76,0,0,1-2.24,5.51c-1.88.08-2.84,1.07-4.32,1.56C218.29,134,220.87,132,223,129.61Z"/><path class="cls-5" d="M265.55,131.5c-1.72,2.65-5.29,4.93-6.55,8.62-1.45.25-2.68,2.06-4.14,1.21C257.92,137.54,261.82,134.61,265.55,131.5Z"/><path class="cls-5" d="M191.62,138.57c.37.5-.9.82-1.21,1.2C190.11,139.34,191.33,139,191.62,138.57Z"/><path class="cls-5" d="M217.13,146.32a26.19,26.19,0,0,1-3.11,8.27C214.62,152.09,215.26,148.13,217.13,146.32Z"/><path class="cls-5" d="M213.32,150.28c-.06,1.89-1.62,3.76-1.71,6.21.1.29.82,0,.86.35,3-2.6,6.92-4.23,11-5.69-3.32,3.38-8.2,6.36-11.89,9.13C210.26,157,211.5,152.11,213.32,150.28Z"/><path class="cls-5" d="M422.37,237.49a549.46,549.46,0,0,0-64.8-36.36c-17-8-33.61-16.93-49.81-26-2.66-1.5-5.28-3.11-7.92-4.65s-5.41-2.91-7.57-5c-2.11-.38-3.78-1.69-5.7-2.59s-3.95-1.52-5.85-2.41-4-2.38-6-3.44c-3.11-1.6-5.71-2.82-9.13-4.31-.68-.29-1.95-.54-1.9-1.72.78-.6,1.49.38,2.06.69,10.94,5.72,22.66,11.11,34.31,16.19,12.39,5.43,24.17,12,36.18,17.75,6,2.83,11.36,6.55,16.89,10.17s11.4,6.54,17.24,9.65,11.14,7,17.05,10,12.24,5.28,18.1,8.79c0-1.47-1.84-2.05-2.76-2.59-8.2-4.83-17.21-8.9-25.33-14.13-9.26-6-20.11-10.28-28.09-16.37,12.4,6.35,25.16,13.41,37.91,19.81,12.4,6.24,25.43,11.14,37.05,18.44C425.08,232.86,423.55,235.44,422.37,237.49Z"/><path class="cls-5" d="M241.77,153.39c-1.9,3-2.33,7.55-5.69,9.13,1.32-3.44,3.22-6.32,4.83-9.48-1.24-.31-2,1.33-2.59,2.25-.66,1.08-1.13,2.35-1.72,3.27.53-2,2.23-4.32,3.27-6.38a10.14,10.14,0,0,0,2.59.35c.16,1.67.33,3.33.35,5.17a6.6,6.6,0,0,0-2.25,1.37C240.64,157.63,242.52,155.68,241.77,153.39Z"/><path class="cls-5" d="M254,152.53c-.95,1.51-3.16,3.27-4.48,5C250.34,155.87,252.44,154,254,152.53Z"/><path class="cls-5" d="M248.83,153.39a17.62,17.62,0,0,0-2.23,1.9C246.75,155.4,247.49,153.23,248.83,153.39Z"/><path class="cls-5" d="M235.22,160.62a6.9,6.9,0,0,1-1.21,2.59c-.27.86.29,1.51-.69,1.55C233.26,163.08,234.68,162.19,235.22,160.62Z"/><path class="cls-5" d="M206.78,169.76c.26.14.37.43.35.86-.4-.05-.65,0-.68.34C206.14,170.82,206.67,170.06,206.78,169.76Z"/><path class="cls-5" d="M278,178.21c.05.29-.48.85,0,1,1.05,0,.65-1.41,1-2.07,1-.5,1.53-1.45,2.58-1.89.13.8.08,1.77.7,2.07,1.17-.06.64-2.3.34-2.92,1.37-1.51,3.29-2.46,4.82-3.8.73.36.87,1.33,2.07,1.21-3.14,5.53-9.29,8-13.79,12.24a1.06,1.06,0,0,0-.85.17,88.23,88.23,0,0,1-15.52,8.95c1.26-3.71,6.49-6.35,10-8.78C272.46,182.25,275.28,180.17,278,178.21Z"/><path class="cls-5" d="M242.11,174.07c.08.71-.88,1.87-1,2.93-.76-.22-1.12-.84-1.72-1.21a3.84,3.84,0,0,1,1.89-1.9.48.48,0,0,0,0,.7C241.79,174.67,242,174.37,242.11,174.07Z"/><path class="cls-5" d="M217.64,175.1c-8.11,6.54-15.34,14-23.78,20.17-.12-1,.49-2.09.17-2.76-.91.63-1.17,1.93-1.2,3.44-.67.89-1.79,1.32-2.59,2.07-.27-.85.35-2.29.35-3.45,4.44-3.13,8.75-6.35,13.09-9.48s7.79-7.4,12.75-9.82C217,175.56,217,175.16,217.64,175.1Z"/><path class="cls-5" d="M268.3,175.27c.15-.56.27,1.41-.52,1C268,176,268.15,175.63,268.3,175.27Z"/><path class="cls-5" d="M300.53,175.62c.75-.22,1.74.78,2.58,1A5.34,5.34,0,0,1,300.53,175.62Z"/><path class="cls-5" d="M270.55,178c.17-1.84,2.74-1.28,3.78-2.24.25.17-.75,1-1.37,1.37A8,8,0,0,1,270.55,178Z"/><path class="cls-5" d="M265.71,176.83c.31.29-.82,2.76-.16.17C265.7,177,265.71,176.93,265.71,176.83Z"/><path class="cls-5" d="M217.64,180.79c0,1,1,1.34.52,2.23-.92,0-1.29-.54-2.07-.68-.15,0-.16.07-.18.17C215.94,182.06,216.9,181.09,217.64,180.79Z"/><path class="cls-5" d="M239,181.13c0,1.19-1.11,2.79-1.37,4.31-.93.14-1.4-.21-2.24-.17C236.35,183.65,238,182.72,239,181.13Z"/><path class="cls-5" d="M332.07,199.75c-2-2.12-4.59,2.49-6.73,2.58-.07.27-.53.15-.34.69-.78-.26-1.46-.61-2.24-.87a25,25,0,0,0,4-2.57c.85-.23,2.09.4,2.23-.18-3.1-2.18-8.23-2.34-7.75-8.1a8.81,8.81,0,0,1,1.9,1.38c.25-1.55-2.46-1.55-2.42-3.45-1.1.38-2.62-.38-2.41-1.2,1.14-.16,2.62,1.07,4,1.89,3.88,2.39,8,5.36,11.9,7.76-.33,1.11-1.25,1.62-1.56,2.75-1.54.76-2.87,1.72-4.48,2.42C328.84,201.92,331,200.93,332.07,199.75Z"/><path class="cls-5" d="M301,193a5.19,5.19,0,0,1-1.89-3.1c-.15-.86.64.66.87,1A9.16,9.16,0,0,1,301,193Z"/><path class="cls-5" d="M312.59,204.91c.67.15,1.43,1.69,2.07,2.42C314,207.19,313.23,205.67,312.59,204.91Z"/><path class="cls-5" d="M154.23,206.81c-.93,2.35-4.66,3.39-6.55,5.34C148.54,209.75,152.21,208.65,154.23,206.81Z"/><path class="cls-5" d="M331.21,209.92c-.28.58-1,2.19-2.25,2.4A14.62,14.62,0,0,0,331.21,209.92Z"/><path class="cls-5" d="M317.08,210.09c.6.31.72,1.12,1.37,1.38,0,1.77,1.08,2.48,1.56,3.78C319.17,214.15,316.9,212.21,317.08,210.09Z"/><path class="cls-5" d="M333.44,210.77c0,.88-1.39,1.69-2.06,2.42C331.54,213.2,332.49,211.11,333.44,210.77Z"/><path class="cls-5" d="M151.29,211.12c-3.35,4.29-7.71,9-12.75,12.24,2-2.65,4.35-4.85,6.2-7.58A30.76,30.76,0,0,0,151.29,211.12Z"/><path class="cls-5" d="M320.35,216.12a7.55,7.55,0,0,1,2.41,3.27C321.85,218.41,321.19,217.18,320.35,216.12Z"/><path class="cls-5" d="M143.19,221.8c-2.62,3.53-6.05,7.74-10.5,10C134,226.27,140.22,225.66,143.19,221.8Z"/><path class="cls-5" d="M369.29,222.49c0,.33.57.12.51.52-.75,1-2.49,1-3.44,1.73A8.49,8.49,0,0,1,369.29,222.49Z"/><path class="cls-5" d="M330,224.39a33.22,33.22,0,0,1,7.06,9.13C334.45,231.43,331.12,228.56,330,224.39Z"/><path class="cls-5" d="M219.37,231.45c-6.26,10.47-14.68,20.27-23.44,28.78,2.07-3.5,6.28-6.35,8.26-10.51A139.37,139.37,0,0,0,219.37,231.45Z"/><path class="cls-5" d="M300.18,254c-2.78.38-4.32-2.58-5.85-5.17a81.23,81.23,0,0,1-7.07-15.68c.54-.25.56.62.69.86C291.68,240.66,295.45,248.31,300.18,254Z"/><path class="cls-5" d="M382.73,239.9a11.89,11.89,0,0,1,2.76-4c1.27.45,1.61,1.84,2.59,2.59a11.12,11.12,0,0,0,1.89,9.13C387.81,245.5,384.2,243.31,382.73,239.9Z"/><path class="cls-5" d="M432.53,240.07c.18.35-.48,1.36-1.38,1.21C431.54,240.8,432.24,240.63,432.53,240.07Z"/><path class="cls-5" d="M341.55,243c3.78,5,7.19,11.87,10.85,17.58a15.46,15.46,0,0,0-.35,3.61C348.35,257.33,344.73,250.39,341.55,243Z"/><path class="cls-5" d="M154.74,244.89c-.26,1.25-1.94,2.54-2.93,3.62-.11.53-.88.55-.17.17C152.62,247.37,153.79,246.24,154.74,244.89Z"/><path class="cls-5" d="M390.14,251.1c.09,1.7,2,1.52,2.25,3.1a8.57,8.57,0,0,1-4-1.73c-1.2-.79-2.75-1.38-3.61-2.06a13.88,13.88,0,0,1-2.07-2.24c0-.71,1.52-1.32,1.72-1.9,1.56,1.09,4,2.26,5.52,3.45.26.2,1.31,1.25,1,1.38v-.18A1.11,1.11,0,0,0,390.14,251.1Z"/><path class="cls-5" d="M104.59,254c-.61-.83-.21-2.14-.16-3.28,3.59,1.77,7.95-.77,10.85-1.89.21.29-1.19,1.13-1.9,1.55C110.92,251.88,108,253.6,104.59,254Z"/><path class="cls-5" d="M142.33,260.06c-1.72,3.73-4.47,7.94-6.54,11.89-3.33,2.2-6,6-9,7.93-.23-1.14,1-1.82,1.54-2.59C132.78,271.64,137.74,265.72,142.33,260.06Z"/><path class="cls-5" d="M304,260.58c2.54,1.14,5,3.82,7.08,6C306.85,266.43,306.38,262.54,304,260.58Z"/><path class="cls-5" d="M133.89,274.89c-1.17,2.16-2.39,5.76-5.17,6.88-.29-.71,1.3-1.51,2.06-2.41.5-.57.59-1.36,1.21-1.55,0-.41.3-.51.17-1A9.39,9.39,0,0,0,133.89,274.89Z"/><path class="cls-5" d="M271.58,298.49c-1.12.54-2.11,2.13-2.93,2.41-.77-5.71-2.75-12.07-3.62-16.54C267.29,289,269.4,293.78,271.58,298.49Z"/><path class="cls-5" d="M372.56,289.36c2.95,2.11,6.83,4.77,8.28,8.95C377,296.41,374.58,293.08,372.56,289.36Z"/><path class="cls-5" d="M94.77,311.76c1.92-1.65,4.61-2.52,6.55-4.14.14.54-1.15,1.23-1.9,1.9s-1.65,1.59-2.24,2.24C96.43,311.72,95.23,312.59,94.77,311.76Z"/><path class="cls-5" d="M393.93,310.55c2.28.67,4.81,2.54,8.11,2.76,0,.95-1,.82-1.21,1.55A13.53,13.53,0,0,1,393.93,310.55Z"/><path class="cls-5" d="M193.51,143.39c-1.41-1.81.4-4.57,1.21-5.86,2.69.88,3.63,3.5,4.65,6a1.12,1.12,0,0,0-1.55.52c.12.71.36.83.86.87,2.51.16.64-5,.86-6.38-1.3-.71-2.19-1.83-3.61-2.41a23.44,23.44,0,0,0,1.55-2.24c3.42,1.86,3.91,9.7,1.89,13.44-1.83.12-1.75,2-3.27,2.07C193.79,149.58,192.42,145.52,193.51,143.39Zm.7-2.75c3.39,1.3.35-4,0,0Zm2.24,6.37c.3-.39.8-.58.68-1.38,0-.52-.62-.52-.85-.86a2.65,2.65,0,0,0,.34-2.41C193.91,141.06,193.31,147.84,196.45,147Z"/><path class="cls-6" d="M253.76,72.27A157.42,157.42,0,0,0,97.41,250.72a10,10,0,0,1,2,.2c.74-.87,1.82-1.39,2.59-2.24,5.15-1.1,10.65-1.87,15-3.79,1.13-2.24,3.12-3.64,5.25-4.87-.25-3.3-.38-6.62-.38-10a131.2,131.2,0,0,1,10.06-50.49c-2.44.52-4.9.44-6.66-1.34-1,.36-1.83,1.42-3.1,1-2.23-2.23,2.68-4.08,3.1-1.37.75-.23.34-1.62.86-2.07.84-.26.65.5,1.21.52l6.88-1.92a131.77,131.77,0,0,1,203.41-46.08l-79.57,79.57c.13,7.12.19,14.5,1.28,21.5.61,3.91,1.62,7.51,2.32,11.48l94.2-94.21a131.78,131.78,0,0,1-50.31,204.67,5.31,5.31,0,0,1,.15,1.8A26.81,26.81,0,0,1,317.08,358c1,.77,3.17,3.61,1.89,5.51-1,1.48-8.14.82-10.16.17-4.12-1.32-7.22-5.15-9.31-8.27a8.23,8.23,0,0,1-2.62-.7,131.56,131.56,0,0,1-126.5-22.52l79.47-79.49c-.5-11.66-.9-23.61-1.35-35.2L152,313.91A132.08,132.08,0,0,1,132.57,282l-.06.1c-.65.26-1.45,1.4-2.41,1.89a39.73,39.73,0,0,1-6,10.18c-1.93,2.56-5.1,6.48-8.44,7.58-.69.22-1.51.06-2.18.33A157.75,157.75,0,1,0,253.76,72.27Z"/></svg>