<svg id="Layer_1" data-name="Layer 1" xmlns="http://www.w3.org/2000/svg" viewBox="0 0 500 500"><defs><style>.cls-1{fill:#80be79;}.cls-2{fill:#fff;}.cls-3{fill:#ff1515;stroke:#000;stroke-miterlimit:10;}</style></defs><polygon class="cls-1" points="285.03 252.43 279.26 253 278.48 236.56 282.57 236.15 285.03 252.43"/><ellipse class="cls-1" cx="280.64" cy="237.49" rx="5.94" ry="4.18" transform="translate(-22.08 28.87) rotate(-5.67)"/><polygon class="cls-1" points="310.9 262.57 306.41 258.89 317.49 246.72 320.67 249.32 310.9 262.57"/><ellipse class="cls-1" cx="318.35" cy="248.9" rx="4.18" ry="5.94" transform="translate(-75.95 337.38) rotate(-50.67)"/><polygon class="cls-1" points="322.02 288.04 321.44 282.26 337.89 281.48 338.3 285.57 322.02 288.04"/><ellipse class="cls-1" cx="336.95" cy="283.64" rx="4.18" ry="5.94" transform="translate(-26.36 34.66) rotate(-5.67)"/><polygon class="cls-1" points="311.87 313.91 315.55 309.42 327.73 320.5 325.12 323.67 311.87 313.91"/><ellipse class="cls-1" cx="325.54" cy="321.36" rx="5.94" ry="4.18" transform="translate(-129.36 369.47) rotate(-50.67)"/><polygon class="cls-1" points="286.4 325.03 292.18 324.45 292.96 340.9 288.87 341.3 286.4 325.03"/><ellipse class="cls-1" cx="290.8" cy="339.96" rx="5.94" ry="4.18" transform="translate(-32.15 30.38) rotate(-5.67)"/><polygon class="cls-1" points="260.54 314.88 265.03 318.56 253.95 330.74 250.77 328.13 260.54 314.88"/><ellipse class="cls-1" cx="253.09" cy="328.55" rx="4.18" ry="5.94" transform="translate(-161.45 316.06) rotate(-50.67)"/><polygon class="cls-1" points="249.42 289.41 249.99 295.19 233.55 295.97 233.14 291.88 249.42 289.41"/><ellipse class="cls-1" cx="234.49" cy="293.81" rx="4.18" ry="5.94" transform="translate(-27.87 24.59) rotate(-5.67)"/><polygon class="cls-1" points="259.57 263.54 255.89 268.03 243.71 256.96 246.31 253.78 259.57 263.54"/><ellipse class="cls-1" cx="245.9" cy="256.09" rx="5.94" ry="4.18" transform="matrix(0.63, -0.77, 0.77, 0.63, -108.04, 283.97)"/><circle class="cls-1" cx="285.72" cy="288.73" r="37.98" transform="translate(-20.9 555.15) rotate(-86.29)"/><polygon class="cls-1" points="273.33 255.93 265.28 260.24 254.26 236.84 259.95 233.79 273.33 255.93"/><ellipse class="cls-1" cx="257.96" cy="236.9" rx="9.33" ry="6.57" transform="translate(-81.3 149.89) rotate(-28.18)"/><polygon class="cls-1" points="301.24 254.45 292.2 251.72 301.26 226.53 307.66 228.46 301.24 254.45"/><ellipse class="cls-1" cx="303.92" cy="229.28" rx="6.8" ry="9.66" transform="translate(-3.5 453.84) rotate(-73.18)"/><polygon class="cls-1" points="318.12 276.73 313.66 268.4 340.23 255.73 343.38 261.63 318.12 276.73"/><ellipse class="cls-1" cx="340" cy="259.65" rx="7.48" ry="9.66" transform="translate(-82.31 191.32) rotate(-28.18)"/><polygon class="cls-1" points="317.12 303.15 319.85 294.11 345.04 303.17 343.11 309.57 317.12 303.15"/><ellipse class="cls-1" cx="342.29" cy="305.83" rx="9.66" ry="6.8" transform="translate(-49.51 544.96) rotate(-73.18)"/><polygon class="cls-1" points="297.72 321.13 306.04 316.67 317.45 340.88 311.56 344.04 297.72 321.13"/><ellipse class="cls-1" cx="313.63" cy="340.82" rx="9.66" ry="6.8" transform="translate(-123.77 188.49) rotate(-28.18)"/><polygon class="cls-1" points="271.3 320.12 280.33 322.85 270.61 350.26 264.21 348.33 271.3 320.12"/><ellipse class="cls-1" cx="267.99" cy="347.36" rx="7.39" ry="9.66" transform="translate(-142.06 503.36) rotate(-73.18)"/><polygon class="cls-1" points="253.32 300.73 257.78 309.05 233.56 320.46 230.4 314.57 253.32 300.73"/><ellipse class="cls-1" cx="233.63" cy="316.63" rx="6.8" ry="9.66" transform="translate(-121.83 147.85) rotate(-28.18)"/><polygon class="cls-1" points="254.32 274.3 251.59 283.34 224.52 273.71 226.45 267.32 254.32 274.3"/><ellipse class="cls-1" cx="227.4" cy="271.09" rx="9.66" ry="7.3" transform="translate(-97.9 410.31) rotate(-73.18)"/><ellipse class="cls-2" cx="274.09" cy="269.16" rx="5.09" ry="4.41" transform="translate(-105.55 327.88) rotate(-53.27)"/><ellipse class="cls-2" cx="309.17" cy="295.91" rx="3.97" ry="3.44" transform="translate(-112.89 366.74) rotate(-53.27)"/><ellipse class="cls-2" cx="264.16" cy="294.77" rx="3.44" ry="3.97" transform="translate(-94.44 462.32) rotate(-73.18)"/><ellipse class="cls-2" cx="300.05" cy="271.24" rx="3.44" ry="3.97" transform="translate(-46.42 479.95) rotate(-73.18)"/><path class="cls-2" d="M289.75,311.71c-.73,2.42-3.59,3.7-6.38,2.85s-4.46-3.49-3.73-5.91,3.59-3.7,6.38-2.85S290.48,309.29,289.75,311.71Z"/><circle class="cls-2" cx="286.13" cy="288.19" r="6.29"/><rect class="cls-3" x="235.5" y="92.29" width="29" height="287.1" transform="translate(-93.54 245.85) rotate(-45)"/><path class="cls-3" d="M250,387.71a151.86,151.86,0,1,1,107.39-44.48A150.9,150.9,0,0,1,250,387.71ZM250,113A122.88,122.88,0,1,0,372.88,235.84,123,123,0,0,0,250,113Z"/><path class="cls-1" d="M305,175.89h0a11.52,11.52,0,0,1-5.44-1.54l-3.8-2.26a2.35,2.35,0,0,1-1.17-2,2.06,2.06,0,0,1,.08-.66v-.05a2.34,2.34,0,0,1,2.36-1.75l5.24.17a1.87,1.87,0,0,0,1.92-1.7v-.21a1.84,1.84,0,0,0-1.61-1.79l-5.17-.71a2.38,2.38,0,0,1-2.06-2.14v-.05s0-.11,0-.16a2.37,2.37,0,0,1,1.53-2.27l2.75-1a6.67,6.67,0,0,1,3.65-.25,4,4,0,0,0,1.1.07,4.33,4.33,0,0,0-.27-8.66,4.31,4.31,0,0,0-3,1.24,7.16,7.16,0,0,1-3.27,1.87l-2.86.72a2.35,2.35,0,0,1-2.64-1.1l0,0a2.34,2.34,0,0,1-.31-1.13,2.37,2.37,0,0,1,.75-1.8l3.81-3.57a1.87,1.87,0,0,0,.59-1.41,1.84,1.84,0,0,0-1.76-1.8,2,2,0,0,0-1.3.42l-4.09,3.11a2.39,2.39,0,0,1-3-.07l0,0a2.33,2.33,0,0,1-.78-1.19,2.4,2.4,0,0,1,.13-1.61l2.09-4.62a5.8,5.8,0,0,1,2.75-2.82,4.33,4.33,0,1,0-6.24-3.89h0a4,4,0,0,1-.52,2l-3.76,6.45a2.27,2.27,0,0,1-2.54,1.05h0a2.51,2.51,0,0,1-1.8-1.79,2.33,2.33,0,0,1-.07-.61l.17-5.23v0a1.83,1.83,0,0,0-1.09-1.75,1.87,1.87,0,0,0-2.61,1.45l-1.17,3.69a2.36,2.36,0,0,1-2.13,2h-.05A2.37,2.37,0,0,1,266.9,137l-.32-.84a13.25,13.25,0,0,1-.75-5.69,5.23,5.23,0,0,0,0-.56,4.33,4.33,0,0,0-8.66.26,4.29,4.29,0,0,0,1.09,2.87,11.72,11.72,0,0,1,2.53,4.44l.4,1.35a3.47,3.47,0,0,1,.08.55,2.35,2.35,0,0,1-1.17,2.09l0,0a2.34,2.34,0,0,1-2.91-.43l-3.5-2.21a1.86,1.86,0,0,0-2.56-.15,1.88,1.88,0,0,0-.57,2,2.05,2.05,0,0,0,.31.56l3.22,4.24a2.26,2.26,0,0,1,.37,2,2,2,0,0,1-.45.83l0,0a2.23,2.23,0,0,1-2.61.59l-1.27-.6a13.13,13.13,0,0,1-4.62-3.75,4.33,4.33,0,1,0-3.39,7h0a4.85,4.85,0,0,1,2.66.8l3.44,2.27a2.37,2.37,0,0,1,1.18,2,2.22,2.22,0,0,1-.08.68v0a2.4,2.4,0,0,1-2.4,1.78l-5.14-.17a2,2,0,0,0-.86.15,1.86,1.86,0,0,0,.48,3.56l5.13.7a2.44,2.44,0,0,1,2.1,2.18v.05a1,1,0,0,1,0,.17,2.41,2.41,0,0,1-1.56,2.32l-.19.07a27.2,27.2,0,0,1-9.08,1.59l-.5,0a4.34,4.34,0,1,0,3,7.91,23.19,23.19,0,0,1,7.05-3.3l1.6-.42a2.42,2.42,0,0,1,2.7,1.13l0,0a2.44,2.44,0,0,1-.45,3l-3.78,3.54a1.89,1.89,0,0,0-.59,1.41,1.81,1.81,0,0,0,.44,1.15,1.86,1.86,0,0,0,2.55.28l4.19-3.18a2.35,2.35,0,0,1,2.92.07h0a2.43,2.43,0,0,1,.84,1.43,2.29,2.29,0,0,1-.17,1.39l-1.09,2.36a5.59,5.59,0,0,1-2.16,2.5,4.33,4.33,0,0,0-2.1,3.88,4.34,4.34,0,0,0,8.67-.17h0a6.27,6.27,0,0,1,.89-3.22l1.46-2.41a2.36,2.36,0,0,1,2.64-1.1h0a2.32,2.32,0,0,1,1.63,1.5,2.35,2.35,0,0,1,.14.87l-.17,5.24h0a1.83,1.83,0,0,0,1.09,1.75,1.87,1.87,0,0,0,2.61-1.45l.71-5.19a2.36,2.36,0,0,1,2.14-2h.05a2.37,2.37,0,0,1,2.43,1.52l.31.84a20,20,0,0,1,1.18,7.11,2.61,2.61,0,0,0,0,.28,4.34,4.34,0,1,0,7.8-2.87,18.8,18.8,0,0,1-3.05-6.55l-.19-.75a2,2,0,0,1-.08-.54,2.36,2.36,0,0,1,1.18-2.1l0,0a2.37,2.37,0,0,1,2.93.43l3.58,3.82a1.86,1.86,0,0,0,3.13-1.86,2.05,2.05,0,0,0-.31-.56l-3.15-4.15a2.38,2.38,0,0,1-.4-2.06,2.29,2.29,0,0,1,.46-.89l0,0a2.36,2.36,0,0,1,2.79-.64l4.83,2.25a10.51,10.51,0,0,1,3.79,2.91,4.33,4.33,0,0,0,7.71-2.86A4.37,4.37,0,0,0,305,175.89Z"/><path class="cls-2" d="M257,165.9a3.11,3.11,0,1,1,.13,4.07A2.88,2.88,0,0,1,257,165.9Z"/><path class="cls-2" d="M277.17,148.52a2.42,2.42,0,1,1,.1,3.16A2.25,2.25,0,0,1,277.17,148.52Z"/><path class="cls-2" d="M274.26,174.74a2.41,2.41,0,1,1-2.94,1.17A2.25,2.25,0,0,1,274.26,174.74Z"/><ellipse class="cls-2" cx="263.15" cy="152.98" rx="2.39" ry="2.08" transform="translate(6.47 316.59) rotate(-62.69)"/><path class="cls-2" d="M286,163.54a3.22,3.22,0,1,1-3.92,1.56A3,3,0,0,1,286,163.54Z"/><path class="cls-2" d="M272,159.32a3.79,3.79,0,1,1-4.1,3.46A3.8,3.8,0,0,1,272,159.32Z"/><path class="cls-1" d="M214.9,231.51c-.29-1.54-1-1.91-1.45-2l-.25,0c-1.11,0-2,1.34-2.52,2.78l-8.42-3a31.63,31.63,0,0,0-1-11.5l2.38-1.3c.47.87,1.34,2.14,2.37,2.14a1.34,1.34,0,0,0,.4-.07c.45-.16,1-.63,1-2a8.75,8.75,0,0,0-.54-2.93c-.64-1.81-1.82-3.64-3-3.64a1.09,1.09,0,0,0-.4.07c-1,.36-1.14,1.86-.88,3.35l-2.66.46a31.93,31.93,0,0,0-6.14-9.41l4.35-7.06a5.42,5.42,0,0,0,2.67,1,1.45,1.45,0,0,0,1.14-.47c.33-.38.57-1.1-.14-2.4a9.66,9.66,0,0,0-2.13-2.53,7.22,7.22,0,0,0-4.06-2,1.43,1.43,0,0,0-1.14.46c-.79.9,0,2.42,1,3.7L189,200.33a31.39,31.39,0,0,0-10.13-4.81l.12-4.75h.28c1.68,0,2.74-.49,2.9-1.36.27-1.39-1.9-2.47-4-2.88a10.84,10.84,0,0,0-1.91-.19c-1.68,0-2.74.5-2.91,1.37-.2,1.07,1,1.92,2.46,2.44l-1.66,4.45a32.47,32.47,0,0,0-3.69-.21,32.07,32.07,0,0,0-7.3.85l-4.35-8.4c1.77-1,2.67-2.17,2.32-3.19-.16-.46-.69-1.22-2.52-1.22a9.49,9.49,0,0,0-3,.54,9.15,9.15,0,0,0-2.93,1.6c-1.18,1-1.11,1.88-1,2.29s.69,1.22,2.51,1.22a7.35,7.35,0,0,0,1.28-.12l1.71,9.31a32.07,32.07,0,0,0-9.21,6.38L144,201.18c.79-1.28,1.24-2.72.41-3.44a1.25,1.25,0,0,0-.86-.3c-1.18,0-2.66,1.22-3.64,2.36-1.42,1.64-2.46,3.83-1.39,4.75a1.28,1.28,0,0,0,.86.31,4.44,4.44,0,0,0,2.48-1.21l3,3.64a32,32,0,0,0-4.73,9.22l-7.84-.21c0-2-.74-3.33-2-3.57a2.2,2.2,0,0,0-.36,0c-1.89,0-3.07,2.58-3.54,5-.79,4.06.45,5.8,1.75,6a2.2,2.2,0,0,0,.36,0c1.11,0,2.09-.92,2.82-2.6l7.34,2.75a31.51,31.51,0,0,0,1,10.72l-3.07,1.68c-.47-.88-1.34-2.14-2.38-2.14a1.27,1.27,0,0,0-.39.06c-1.34.47-1.18,2.88-.47,4.93.63,1.82,1.81,3.65,3,3.65a1.09,1.09,0,0,0,.4-.07c1-.36,1.15-1.86.88-3.35l3.46-.59a31.81,31.81,0,0,0,6.15,9.38L143,255.27a5.42,5.42,0,0,0-2.66-1,1.43,1.43,0,0,0-1.14.47c-1,1.15.47,3.36,2.28,4.93a7.24,7.24,0,0,0,4.05,2,1.43,1.43,0,0,0,1.15-.47c.78-.9,0-2.41-1.05-3.69l6.39-5.28a31.69,31.69,0,0,0,10.57,4.9l-.05,2.28h-.27c-1.69,0-2.75.5-2.92,1.37-.26,1.39,1.91,2.46,4,2.87a9.87,9.87,0,0,0,1.9.19c1.69,0,2.75-.5,2.92-1.37.2-1.08-1-1.93-2.46-2.44l.79-2.14a31.93,31.93,0,0,0,11.39-.62l3.95,7.28c-1.48.78-2.74,1.91-2.36,3,.17.49.71,1.08,2.27,1.08a10.14,10.14,0,0,0,3.15-.59,9.94,9.94,0,0,0,2.93-1.54c1.15-.94,1.19-1.71,1-2.18s-.7-1.08-2.27-1.08a8.75,8.75,0,0,0-1.46.14l-1.38-8.18a31.67,31.67,0,0,0,9.28-6.46l3.71,2.26c-.79,1.28-1.23,2.72-.4,3.44a1.3,1.3,0,0,0,.86.3c1.18,0,2.65-1.23,3.64-2.37,1.42-1.64,2.45-3.83,1.38-4.76a1.34,1.34,0,0,0-.86-.3,4.44,4.44,0,0,0-2.48,1.21l-2.78-3.33a31.71,31.71,0,0,0,4.94-9.9l8.95.31c-.07,2,.51,3.39,1.54,3.59l.25,0c1.46,0,2.57-2.3,3-4.45A9.2,9.2,0,0,0,214.9,231.51Z"/><path class="cls-2" d="M152.46,226a3.35,3.35,0,1,1,0,4.39A3.12,3.12,0,0,1,152.46,226Z"/><path class="cls-2" d="M178.4,208.87a2.82,2.82,0,1,1,0,3.69A2.62,2.62,0,0,1,178.4,208.87Z"/><ellipse class="cls-2" cx="164.96" cy="243.19" rx="2.42" ry="2.79" transform="translate(-119.04 167.7) rotate(-40.96)"/><ellipse class="cls-2" cx="192.13" cy="216.76" rx="2.42" ry="2.79" transform="translate(-95.05 179.04) rotate(-40.96)"/><ellipse class="cls-2" cx="192.52" cy="232.84" rx="2.79" ry="2.42" transform="translate(-108.26 204.33) rotate(-45)"/><ellipse class="cls-2" cx="148.86" cy="215.16" rx="2.11" ry="1.83" transform="translate(-111.55 240.45) rotate(-60.87)"/><path class="cls-2" d="M146.84,236.3a2.14,2.14,0,1,1-.42,2.76A2,2,0,0,1,146.84,236.3Z"/><ellipse class="cls-2" cx="173.09" cy="201.44" rx="1.83" ry="2.11" transform="translate(-51.8 342.73) rotate(-81.47)"/><path class="cls-2" d="M169.63,252.86a2.14,2.14,0,1,1,2.38,1.48A2,2,0,0,1,169.63,252.86Z"/><ellipse class="cls-2" cx="161.25" cy="212.58" rx="2.79" ry="2.42" transform="translate(-102.93 249.95) rotate(-60.87)"/><ellipse class="cls-2" cx="181.67" cy="239.38" rx="3.83" ry="3.06" transform="translate(-108.99 315.66) rotate(-67.51)"/><circle class="cls-2" cx="172.78" cy="225.28" r="3.94" transform="translate(-84.53 345.27) rotate(-77.52)"/></svg>